<svg id="Capa_1" enable-background="new 0 0 512 512" height="512" viewBox="0 0 512 512" width="512" xmlns="http://www.w3.org/2000/svg"><path d="m304.707 450.959c28.353 7.602 56.439 16.231 84.444 25.13h122.849v-62.7c0-5.735-4.69-10.378-10.425-10.307-98.237 1.228-177.394 19.645-233.534 38.704 12.273 2.847 24.496 5.91 36.666 9.173z" fill="#fca863"/><path d="m304.707 450.959c28.357 7.602 56.445 16.233 84.453 25.133h122.837v-19.275c-67.697-2.824-135.042-12.269-200.718-28.121-15.648 4.186-30.07 8.62-43.236 13.09 12.273 2.847 24.495 5.91 36.664 9.173z" fill="#fc9744"/><path d="m512 476.088c-82.587-3.39-164.547-16.39-244.193-38.866-67.604-19.078-154.33-34.944-257.403-35.952-5.727-.055-10.404 4.58-10.404 10.307v54.209c0 5.69 4.612 10.302 10.302 10.302z" fill="#fddaa9"/><path d="m221.584 172.547c-.964 0-1.943-.182-2.892-.565-3.956-1.598-5.868-6.102-4.269-10.058 3.132-7.753 10.026-23.029 13.918-30.84 1.902-3.819 6.541-5.373 10.361-3.47 3.819 1.903 5.373 6.541 3.47 10.361-3.756 7.539-10.404 22.269-13.422 29.738-1.215 3.008-4.11 4.834-7.166 4.834z" fill="#e0d3ce"/><path d="m159.424 254.467c-3.66 0-6.911-2.612-7.592-6.341l-10.466-57.333c-.767-4.198 2.016-8.222 6.213-8.988 4.198-.763 8.222 2.016 8.988 6.213l10.466 57.333c.767 4.198-2.016 8.222-6.213 8.988-.468.086-.936.128-1.396.128z" fill="#e0d3ce"/><circle cx="266.559" cy="268.445" fill="#cdbfbb" r="117.592"/><path d="m384.155 268.445c0 64.943-52.653 117.595-117.595 117.595-4.502 0-8.952-.258-13.32-.762 58.669-6.603 104.254-56.402 104.254-116.833 0-60.43-45.586-110.229-104.254-116.833 4.368-.505 8.818-.762 13.32-.762 64.942-.001 117.595 52.652 117.595 117.595z" fill="#b9acac"/><g fill="#e0d3ce"><path d="m190.779 280.724c-13.959 12.218-23.365 37.591-25.837 46.914-3.719-6.356-6.851-13.094-9.323-20.14 5.141-12.62 13.392-28.268 24.982-38.405 3.214-2.812 8.097-2.483 10.899.731 2.813 3.215 2.493 8.088-.721 10.9z"/><path d="m224.438 35.909c-28.928 0-52.899 5.88-72.122 13.853l-20.739-7.24c-4.031-1.408-8.435.72-9.842 4.748-1.406 4.029.719 8.435 4.748 9.842l6.353 2.218c-6.819 3.911-12.764 7.951-17.833 11.814-23.012 17.538-33.564 35.123-34.002 35.863-2.17 3.666-.958 8.388 2.703 10.567 1.236.735 2.596 1.086 3.938 1.086 2.632 0 5.199-1.346 6.648-3.766.096-.16 9.798-16.155 30.646-31.888 27.821-20.996 61.298-31.642 99.501-31.642 4.267 0 7.726-3.459 7.726-7.726s-3.458-7.729-7.725-7.729z"/><path d="m64.849 54.869c-.683.569-10.965 9.277-20.223 24.455l-19.632 5.398c-4.114 1.131-6.533 5.383-5.402 9.498.943 3.429 4.054 5.68 7.446 5.68.678 0 1.367-.09 2.053-.278l6.553-1.802c-1.81 4.918-3.318 10.208-4.353 15.845-.771 4.197 2.007 8.224 6.203 8.995.472.087.942.129 1.405.129 3.656 0 6.906-2.607 7.59-6.332 5.572-30.334 28.04-49.538 28.267-49.728 3.266-2.734 3.703-7.597.975-10.87-2.733-3.279-7.606-3.722-10.882-.99z"/><path d="m484.958 349.012h-13.884c4.988-5.098 9.807-10.763 14.328-17.072 2.485-3.469 1.688-8.295-1.781-10.781-3.469-2.484-8.295-1.687-10.781 1.781-15.321 21.384-34.776 34.64-51.903 42.797l3.513-13.705c1.06-4.133-1.432-8.343-5.566-9.403-4.13-1.059-8.344 1.432-9.403 5.566l-6.325 24.673c-13.371 4.413-22.729 5.451-23.006 5.48-4.241.419-7.344 4.194-6.931 8.437.388 3.993 3.75 6.979 7.681 6.979.25 0 .503-.012.757-.037 1.965-.191 37.443-3.977 71.657-29.262h31.644c4.267 0 7.726-3.459 7.726-7.726 0-4.268-3.459-7.727-7.726-7.727z"/><path d="m451.486 221.838c-3.088-2.945-7.978-2.829-10.924.26l-8.116 8.511c.015-.922.035-1.842.035-2.767 0-31.589-9.061-61.98-25.303-87.956v-37.21c0-4.267-3.459-7.726-7.726-7.726s-7.726 3.459-7.726 7.726v16.335c-12.152-14.004-26.71-26.081-43.29-35.505-3.709-2.109-8.427-.811-10.535 2.899-2.109 3.71-.811 8.426 2.899 10.535 39.952 22.709 67.033 62.338 74.275 106.873l-5.338-3.738c-3.495-2.448-8.313-1.598-10.761 1.897s-1.598 8.313 1.897 10.761l16.091 11.268c.033 1.278.065 2.557.065 3.84 0 76.543-57.45 139.919-131.495 149.277 15.681-18.946 39.795-55.842 45.08-108.167 5.927-3.082 17.256-10.231 24.526-22.75 2.143-3.69.889-8.419-2.801-10.561-3.688-2.143-8.419-.889-10.561 2.801-2.823 4.86-6.583 8.652-10.125 11.476.302-34.154-7.617-73.956-29.973-118.831-1.902-3.819-6.54-5.372-10.361-3.47-3.819 1.902-5.373 6.541-3.47 10.361 35.366 70.988 32.404 128.105 18.977 169.022l-15.142-35.144c-1.689-3.919-6.233-5.729-10.153-4.038-3.919 1.688-5.727 6.234-4.038 10.153l21.289 49.41c-4.976 10.713-10.464 19.874-15.669 27.415-2.709-.808-20.324-6.55-35.234-22.839l7.111-18.889c1.504-3.993-.515-8.45-4.509-9.953-3.993-1.502-8.449.515-9.953 4.509l-3.487 9.263c-2.772-5.011-5.173-10.63-6.996-16.93-1.187-4.1-5.471-6.458-9.569-5.275-4.099 1.186-6.461 5.471-5.275 9.569 11.98 41.402 44.358 58.109 58.092 63.474-4.161 4.975-7.615 8.509-9.726 10.551-81.593-1.601-147.477-68.463-147.477-150.432 0-54.016 29.209-104.174 76.229-130.901 3.71-2.109 5.008-6.825 2.899-10.535-2.109-3.709-6.824-5.007-10.535-2.899-25.054 14.241-45.502 34.528-59.964 58.402l-3.677-13.735c-1.104-4.122-5.339-6.572-9.462-5.465-4.122 1.104-6.568 5.34-5.465 9.462l8.076 30.164c-8.787 20.396-13.553 42.635-13.553 65.508 0 16.465 2.422 32.372 6.909 47.397l-5.827-.775c-4.238-.565-8.115 2.411-8.677 6.641s2.411 8.115 6.641 8.677l13.703 1.822c25.042 59.933 84.266 102.161 153.174 102.161 82.112 0 150.472-59.96 163.626-138.393l21.561-22.609c2.943-3.092 2.826-7.983-.262-10.927z"/><path d="m196.663 239.221c.862.309 1.741.455 2.607.455 3.17 0 6.143-1.966 7.274-5.121.066-.183 2.762-7.444 8.982-15.883l23.459 1.62c.181.013.361.019.54.019 4.024 0 7.419-3.119 7.7-7.195.294-4.257-2.919-7.946-7.176-8.24l-10.254-.708c10.111-7.541 23.937-13.068 42.279-11.37 4.247.389 8.012-2.732 8.405-6.982.393-4.249-2.733-8.012-6.982-8.405-31.478-2.911-52.021 11.41-63.708 23.94-12.459 13.357-17.58 27.399-17.792 27.99-1.44 4.017.649 8.441 4.666 9.88z"/></g></svg>