<?xml version="1.0" standalone="no"?>
<!DOCTYPE svg PUBLIC "-//W3C//DTD SVG 20010904//EN"
 "http://www.w3.org/TR/2001/REC-SVG-20010904/DTD/svg10.dtd">
<svg version="1.0" xmlns="http://www.w3.org/2000/svg"
 width="836.000000pt" height="1280.000000pt" viewBox="0 0 836.000000 1280.000000"
 preserveAspectRatio="xMidYMid meet">
<metadata>
Created by potrace 1.15, written by Peter Selinger 2001-2017
</metadata>
<g transform="translate(0.000000,1280.000000) scale(0.100000,-0.100000)"
fill="#000000" stroke="none">
<path d="M4741 12752 c-52 -25 -93 -37 -133 -40 -56 -4 -58 -6 -58 -32 0 -55
-54 -64 -87 -14 l-16 25 -56 -54 c-88 -84 -152 -108 -192 -72 -15 15 -17 14
-23 -10 -11 -43 -136 -89 -136 -50 0 9 23 37 50 64 53 51 58 62 37 79 -9 8
-29 3 -75 -18 -34 -17 -67 -30 -74 -30 -10 0 -10 -2 0 -9 9 -5 -4 -17 -45 -37
-44 -22 -68 -43 -103 -91 -25 -34 -48 -62 -52 -62 -4 -1 -9 8 -13 19 -8 25 17
61 66 95 21 16 38 30 35 32 -7 7 -169 -87 -239 -138 -76 -56 -107 -98 -107
-149 -1 -30 -2 -33 -12 -16 -6 10 -17 44 -25 75 -27 103 -48 107 -56 12 -8
-94 -81 -261 -115 -261 -27 0 -24 32 7 75 24 33 30 49 23 61 -8 14 -13 11 -36
-18 -14 -19 -26 -41 -27 -49 0 -8 -4 -6 -9 6 -5 11 -9 56 -10 100 -1 79 -1 80
-17 51 -24 -45 -29 -145 -9 -202 20 -58 20 -57 -1 -46 -36 18 -81 22 -93 7 -6
-8 -16 -45 -22 -83 l-10 -70 -42 -4 c-22 -3 -42 -4 -44 -2 -2 1 4 17 13 35 22
41 16 132 -9 157 -17 16 -18 16 -12 -4 11 -35 -22 -113 -91 -218 -77 -116
-170 -218 -201 -221 -12 -1 -43 -19 -69 -41 -70 -59 -72 -59 -56 -12 15 45 10
104 -11 133 -11 15 -16 5 -35 -69 -35 -133 -69 -189 -166 -276 l-27 -25 23 45
c23 46 33 149 15 167 -17 17 -53 -48 -59 -106 -4 -48 -20 -96 -88 -270 -15
-39 -39 -8 -39 50 0 28 -5 49 -11 49 -7 0 -8 -33 -2 -107 11 -162 10 -188 -7
-188 -8 0 -28 25 -45 55 -16 30 -30 48 -32 40 -1 -8 -5 -36 -8 -62 -7 -54 -16
-60 -32 -20 -10 24 -11 22 -12 -30 -1 -36 -12 -88 -32 -144 l-32 -86 -13 30
c-15 36 -55 65 -78 56 -20 -8 -20 -6 4 -51 11 -21 20 -53 20 -71 0 -28 -55
-216 -67 -231 -2 -3 -10 5 -19 17 -8 12 -26 22 -40 22 -22 0 -24 -4 -24 -47
-1 -101 -20 -317 -30 -349 -14 -41 -26 -44 -25 -6 0 21 -5 28 -24 30 -13 2
-22 0 -20 -5 2 -4 17 -34 32 -65 18 -35 31 -80 34 -117 l6 -61 -31 6 c-30 6
-31 6 -34 -37 l-3 -44 -23 35 c-23 34 -23 40 -17 175 9 198 -7 229 -24 47 -16
-164 -11 -213 29 -275 27 -43 28 -46 11 -61 -16 -15 -19 -14 -44 12 -14 15
-31 40 -37 56 -14 39 -22 28 -10 -15 11 -38 13 -90 4 -113 -10 -27 -21 -18
-16 14 4 27 1 30 -21 30 -14 0 -38 -10 -52 -22 l-26 -23 23 -50 c22 -48 23
-62 26 -325 1 -175 -1 -270 -7 -261 -8 12 -12 12 -25 2 -22 -18 -20 -27 10
-66 32 -42 54 -113 54 -174 l0 -45 -17 24 c-22 35 -75 90 -94 101 -15 7 -14 0
4 -54 18 -53 21 -86 21 -222 l0 -160 -81 -320 c-103 -406 -107 -431 -164
-1005 -49 -503 -49 -839 2 -1422 l19 -227 -34 -114 c-82 -271 -137 -563 -155
-822 -4 -61 -10 -103 -14 -95 -3 8 -65 240 -137 515 -72 275 -210 797 -305
1160 -186 706 -231 908 -220 987 11 80 54 115 107 87 34 -18 30 -4 -11 42
l-39 45 27 12 c30 13 87 105 76 122 -3 5 -31 10 -61 10 l-54 0 0 39 c0 27 5
41 16 45 16 6 16 8 0 24 -19 22 -21 87 -3 118 7 12 40 45 75 73 68 56 76 80
37 105 -36 24 -31 42 17 58 23 8 48 24 56 36 14 21 13 22 -11 22 -13 0 -35 8
-48 19 -26 21 -33 16 64 41 62 17 117 66 117 106 0 38 -30 85 -75 120 l-37 28
39 15 c74 31 78 35 75 88 -1 26 -11 80 -23 118 -37 121 -36 154 5 231 20 37
34 69 33 71 -2 1 -20 -9 -42 -24 -22 -15 -36 -20 -33 -12 11 29 98 290 98 294
0 3 -11 5 -24 5 -49 0 -50 22 -8 112 63 130 132 336 146 435 4 30 2 46 -9 57
-13 13 -12 18 10 45 14 16 42 40 61 52 26 16 32 24 23 30 -11 6 -7 15 15 38
l30 31 -24 25 c-33 35 -22 80 54 233 35 70 71 145 80 167 l16 40 -35 -40 c-19
-22 -67 -87 -106 -145 -39 -58 -75 -106 -79 -108 -4 -1 -12 4 -19 11 -9 11 -8
17 4 27 16 14 20 30 6 30 -4 0 -25 -25 -45 -55 -40 -60 -66 -71 -66 -28 0 43
-10 21 -35 -80 -26 -104 -49 -157 -69 -157 -24 0 -26 12 -6 38 20 25 25 48 14
76 -4 12 -10 13 -29 4 -22 -10 -23 -15 -19 -77 4 -53 2 -73 -14 -100 -29 -54
-42 -51 -43 11 -1 44 -2 48 -8 23 -4 -17 -27 -73 -51 -125 -36 -76 -45 -110
-50 -170 -4 -66 -7 -72 -18 -53 -6 12 -12 41 -12 65 0 43 -13 68 -35 68 -8 0
-10 -18 -7 -54 5 -63 -16 -254 -29 -262 -5 -3 -9 18 -9 46 0 32 -4 49 -10 45
-5 -3 -10 -34 -10 -68 0 -70 -9 -91 -36 -85 -18 3 -19 13 -15 142 2 99 0 137
-8 132 -6 -4 -11 -17 -11 -29 0 -18 -2 -19 -11 -7 -8 11 -9 -5 -5 -57 7 -82
-3 -245 -14 -238 -4 2 -10 34 -13 71 -2 36 -10 71 -16 77 -8 8 -11 -44 -12
-193 l0 -205 -18 60 c-10 33 -25 76 -34 95 -17 35 -17 35 -11 -45 3 -44 10
-107 15 -140 13 -84 12 -102 -3 -87 -24 24 -28 10 -28 -87 0 -55 -4 -103 -10
-106 -5 -3 -19 9 -31 27 l-21 33 6 -55 c3 -30 11 -95 16 -145 12 -114 30 -500
30 -670 0 -120 3 -139 35 -245 83 -267 124 -457 108 -492 -11 -26 -2 -52 -87
252 -50 181 -107 308 -157 355 -18 17 -30 26 -27 20 10 -18 305 -789 322 -840
9 -27 34 -138 55 -245 86 -421 210 -1001 322 -1497 l52 -232 -36 -158 c-95
-412 -145 -828 -154 -1268 -8 -416 18 -744 87 -1085 17 -80 30 -148 30 -152 0
-3 -13 0 -28 8 -42 20 -124 34 -168 27 -56 -8 -152 -57 -204 -104 -25 -23 -36
-37 -25 -33 68 25 200 53 256 53 130 2 192 -71 280 -325 91 -263 205 -508 349
-749 43 -71 84 -150 90 -175 7 -25 21 -62 32 -83 11 -22 18 -41 15 -43 -7 -7
-219 233 -279 317 -56 77 -128 212 -128 239 0 6 -10 30 -23 53 l-22 42 -3 -89
c-5 -159 52 -322 177 -499 53 -77 57 -85 29 -63 -18 14 -60 57 -93 95 -33 39
-64 71 -70 71 -5 0 -37 -9 -70 -19 -59 -18 -60 -19 -78 -71 -22 -65 -31 -178
-20 -250 l8 -55 22 85 c21 88 80 230 94 230 4 0 28 -35 54 -78 75 -125 160
-212 281 -284 102 -62 104 -63 82 -79 -23 -18 -81 -28 -162 -30 l-51 -1 55
-13 c94 -24 189 -28 250 -11 45 12 52 12 36 0 -44 -32 -167 -74 -235 -80 -39
-4 -70 -8 -68 -10 8 -8 266 -34 332 -34 49 0 91 8 140 25 39 14 74 25 79 25
18 0 -29 -42 -97 -87 -48 -32 -65 -48 -56 -53 8 -4 70 -25 139 -46 109 -33
138 -38 227 -39 101 0 101 0 195 47 100 50 149 63 273 73 52 4 92 14 114 26
29 17 44 19 119 13 81 -7 89 -5 198 32 63 21 114 42 114 46 0 4 -21 10 -47 14
-82 12 -94 23 -28 23 70 1 90 -8 182 -83 69 -55 143 -86 176 -73 12 5 17 18
17 48 0 42 0 42 33 36 17 -4 65 -16 106 -27 90 -24 129 -25 252 -4 109 19 202
51 196 67 -2 7 -20 23 -41 36 l-37 25 26 13 c27 15 28 18 25 75 -1 29 8 51 38
95 21 32 54 83 73 113 42 68 62 87 111 102 91 27 221 -56 247 -157 11 -43 14
-47 23 -31 15 27 4 86 -27 147 -34 69 -60 97 -110 120 -86 40 -165 21 -350
-85 -71 -41 -131 -73 -132 -72 -9 9 88 327 118 388 10 20 65 99 122 175 57 76
121 170 142 208 163 293 271 382 392 323 24 -12 113 -134 139 -190 15 -32 15
-31 9 42 -17 225 -106 318 -251 262 -85 -32 -164 -90 -278 -206 l-109 -111 43
80 c204 375 494 813 756 1141 416 521 940 986 1412 1254 91 52 117 71 65 46
-187 -85 -363 -186 -616 -353 -614 -405 -1143 -913 -1499 -1437 -38 -55 -68
-97 -68 -94 0 27 881 1847 979 2023 40 72 77 134 82 139 6 6 91 4 231 -7 l221
-18 92 -88 c95 -90 232 -211 240 -211 3 0 -35 37 -83 83 -167 158 -227 219
-207 212 11 -3 161 -9 333 -12 233 -5 312 -3 312 5 0 8 -19 12 -52 12 -29 0
-203 23 -388 51 -333 50 -335 50 -370 82 l-35 32 30 -33 30 -34 -35 6 c-19 4
-81 13 -138 20 -57 8 -106 17 -109 19 -3 3 16 38 41 77 42 64 49 70 64 58 15
-12 16 -11 4 4 -16 21 -28 -2 165 312 176 286 203 320 248 310 402 -81 907
-297 1350 -578 78 -50 56 -29 -80 76 -282 218 -554 382 -857 519 -147 66 -148
67 -111 73 66 12 70 15 83 62 11 38 20 49 46 60 18 8 51 14 73 14 38 0 40 2
43 33 3 28 7 32 36 35 34 3 46 22 14 22 -17 0 -130 87 -131 101 -1 4 27 1 62
-7 89 -19 216 -29 197 -15 -8 6 -32 11 -53 11 -74 0 -131 49 -79 68 15 6 36
13 46 18 16 6 18 4 13 -9 -14 -36 18 -26 94 32 45 34 85 61 90 61 17 0 9 -22
-20 -51 l-29 -29 56 0 c78 0 90 9 66 48 -22 38 -61 56 -109 50 -19 -2 -35 -1
-35 4 0 26 284 128 357 128 30 0 34 2 23 15 -16 20 -100 20 -126 0 -25 -19
-34 -19 -34 0 0 8 5 15 11 15 7 0 9 9 5 24 -5 22 -2 24 45 30 64 9 273 62 301
77 36 19 5 29 -100 30 -56 0 -102 4 -102 9 0 19 60 49 142 73 95 28 118 38
138 61 11 14 7 16 -36 17 -45 1 -46 2 -17 9 45 10 82 37 93 66 10 26 40 33 40
9 0 -9 -7 -29 -15 -45 -9 -17 -20 -42 -26 -56 l-10 -27 51 6 c28 3 64 14 80
24 51 30 31 47 -22 19 -16 -8 -28 -13 -28 -11 0 3 12 34 26 70 30 75 45 86
127 94 66 7 76 19 30 35 -37 13 -60 32 -49 43 4 4 20 2 36 -4 36 -13 38 -7 8
24 l-21 23 79 1 c60 1 71 3 47 9 -47 11 -65 28 -53 50 16 30 12 40 -21 52
l-31 11 49 16 c26 9 69 31 95 49 70 48 148 82 190 82 26 0 37 5 40 17 3 15 15
17 102 14 54 -1 107 -8 116 -13 10 -7 25 -8 36 -3 17 8 17 9 -4 13 -19 3 -23
8 -18 25 3 12 6 25 6 29 0 4 15 2 32 -3 18 -5 51 -9 73 -8 l40 1 -43 12 c-43
11 -48 26 -8 26 12 0 28 5 36 10 11 7 4 10 -27 10 -30 0 -49 -6 -63 -20 -20
-20 -20 -20 -36 5 -13 20 -14 28 -4 40 11 13 6 15 -35 15 -102 0 -14 44 140
70 39 7 109 10 157 8 72 -2 84 -1 75 11 -6 7 -20 17 -32 21 -17 7 -14 9 13 9
18 1 48 -6 67 -13 37 -16 49 -4 23 22 -27 27 -225 4 -378 -44 -24 -7 -25 -7
-9 17 18 26 77 64 124 78 17 5 77 23 134 41 173 52 185 79 28 61 -184 -22
-422 -76 -455 -103 -21 -18 -28 2 -10 33 l17 29 -37 -19 c-46 -24 -119 -101
-128 -135 -7 -28 -38 -36 -47 -12 -3 8 5 35 18 60 26 49 24 56 -16 56 -38 0
-59 -33 -59 -92 0 -78 -32 -75 -45 4 -4 21 -9 38 -12 38 -3 0 -43 -36 -89 -79
-98 -93 -204 -154 -215 -124 -3 10 -2 29 3 42 5 13 7 25 5 27 -1 2 -46 -35
-99 -81 -95 -83 -96 -83 -107 -59 -17 38 -40 29 -66 -28 -27 -58 -31 -98 -14
-130 16 -30 -9 -19 -34 14 -17 23 -18 32 -9 71 7 24 14 52 18 61 3 9 1 16 -5
16 -23 0 -50 -46 -67 -113 l-18 -72 -8 40 c-4 22 -11 67 -16 100 l-9 60 -2
-68 c-1 -50 -4 -67 -13 -64 -7 2 -13 14 -12 26 0 11 -3 21 -7 21 -13 0 -29
-71 -29 -127 0 -56 -13 -103 -29 -103 -6 0 -21 11 -34 25 l-23 26 -22 -53
c-21 -51 -64 -108 -81 -108 -22 0 -28 79 -11 125 10 25 9 27 -13 21 -13 -3
-32 1 -45 9 -24 18 -28 14 -37 -40 -17 -102 -14 -97 -53 -93 -30 2 -37 -1 -40
-17 -2 -11 -19 -36 -38 -56 -28 -29 -40 -35 -65 -31 -39 6 -57 -12 -121 -115
-28 -46 -53 -83 -55 -83 -2 0 -1 16 3 35 15 80 -69 6 -131 -115 -30 -59 -120
-190 -131 -190 -8 0 30 137 66 238 11 28 16 52 12 52 -15 0 -70 -65 -90 -105
-11 -22 -43 -98 -72 -170 -58 -144 -80 -179 -81 -130 0 30 -17 81 -18 58 -1
-7 -19 -22 -41 -33 -62 -32 -64 -41 -50 -229 7 -91 11 -182 9 -201 -4 -30 -8
-35 -34 -36 -16 -1 -275 -8 -575 -14 l-545 -12 -145 75 c-80 41 -185 90 -235
108 -49 19 -92 36 -95 40 -3 3 -15 9 -27 13 -13 4 -23 11 -23 16 0 4 55 44
123 88 441 288 898 480 1457 612 l115 27 -130 6 c-215 9 -420 -23 -667 -103
-159 -52 -410 -169 -576 -268 -57 -34 -106 -62 -109 -62 -2 0 5 12 16 26 11
14 30 51 41 82 12 31 26 62 32 69 16 19 29 5 22 -24 -7 -25 -7 -25 20 -8 49
32 32 62 -61 109 -29 14 -53 28 -53 30 0 2 29 1 65 -2 43 -3 65 -1 65 6 0 6
-4 14 -10 17 -5 3 -10 17 -10 31 0 34 53 67 98 60 28 -4 32 -2 32 19 0 13 5
27 10 30 6 4 4 12 -5 21 -17 18 -20 34 -5 34 20 0 68 -29 74 -45 10 -28 25 -6
19 29 -7 44 7 68 49 82 l33 11 -32 7 c-28 6 -33 12 -33 36 l0 29 -47 -45 c-53
-52 -143 -101 -204 -110 l-43 -7 49 64 c27 35 86 106 132 157 46 50 127 152
181 225 116 156 171 207 274 256 l76 37 -29 16 c-46 27 -36 42 37 56 75 14
157 47 176 69 11 14 8 15 -22 7 -64 -15 -95 -11 -95 11 0 25 97 66 173 73 50
4 52 6 52 33 0 40 98 141 279 288 165 134 186 154 178 175 -4 11 5 16 34 21
22 4 66 20 99 37 56 28 63 35 93 98 30 64 34 68 57 62 55 -15 102 -7 126 22
13 15 24 33 24 40 0 16 80 56 127 63 35 6 43 17 18 27 -26 9 -17 34 18 46 17
6 81 14 141 17 l108 6 -54 17 c-29 9 -62 21 -73 28 -18 9 -18 11 -3 17 9 4 31
5 50 3 24 -2 33 -8 32 -20 -1 -15 2 -16 19 -7 11 6 42 9 69 7 70 -7 62 20 -14
47 -71 25 -102 51 -48 41 127 -26 246 -34 235 -16 -3 6 -13 10 -22 10 -21 0
-133 51 -133 60 0 14 174 69 225 71 18 0 17 1 -5 10 -23 9 -39 26 -40 40 0 4
40 4 88 1 85 -4 91 -3 192 38 145 58 143 56 74 69 -129 26 -125 23 -54 37 36
7 94 16 130 20 73 8 63 17 -36 30 l-59 8 55 7 c30 4 80 8 110 9 49 1 52 3 27
12 -39 14 -24 28 31 28 36 1 43 3 30 11 -10 5 -15 16 -12 24 5 11 23 15 70 15
41 0 86 8 122 21 31 12 79 27 107 33 43 11 47 13 25 19 -14 4 -41 7 -60 8
l-35 1 33 10 c32 11 47 34 15 24 -41 -11 -243 -18 -243 -8 0 14 50 29 124 37
67 8 106 20 106 34 0 5 -19 7 -42 5 -159 -17 -214 -28 -315 -63 -105 -37 -113
-38 -113 -20 0 11 -16 36 -35 57 l-34 37 -1 -32 c0 -41 -30 -65 -179 -144
-126 -67 -128 -64 -25 50 26 28 45 53 43 56 -7 7 -174 -52 -234 -82 -33 -17
-82 -54 -109 -83 -56 -60 -75 -61 -138 -4 -21 19 -49 34 -62 34 -22 0 -23 -3
-19 -43 4 -31 1 -46 -11 -56 -20 -17 -41 -10 -41 14 0 10 -6 20 -12 22 -9 3
-13 -8 -13 -35 0 -47 -28 -89 -53 -79 -13 5 -17 19 -17 62 0 30 -2 55 -5 55
-4 0 -20 -7 -37 -16 l-32 -16 23 -13 c23 -12 23 -12 -11 -25 -18 -7 -34 -14
-36 -16 -2 -1 2 -11 9 -22 10 -16 10 -26 1 -47 -13 -27 -17 -27 -79 -4 -45 17
-12 85 35 72 27 -7 29 3 2 17 -24 13 -32 9 -136 -65 -42 -30 -84 -55 -94 -55
-10 0 -28 11 -38 25 -20 25 -21 25 -27 5 -8 -26 -90 -128 -163 -203 -54 -56
-115 -97 -145 -97 -16 0 -57 41 -57 58 0 25 -18 10 -54 -43 -20 -30 -36 -57
-36 -60 0 -6 -148 -242 -179 -285 -49 -67 -86 -110 -95 -110 -5 0 -1 9 8 19
18 20 14 42 -7 40 -7 0 -37 -38 -67 -85 -63 -99 -139 -184 -163 -184 -16 0
-16 3 0 38 30 65 105 166 223 301 105 120 190 238 190 265 0 16 -192 -178
-260 -261 -33 -40 -69 -95 -82 -123 -25 -56 -41 -60 -46 -12 -2 18 -9 32 -16
32 -13 0 -56 -213 -56 -278 0 -34 -8 -40 -28 -20 -16 16 -15 56 4 149 11 56
13 87 6 106 -12 34 -10 39 -57 -137 -81 -298 -139 -417 -282 -571 -64 -70 -93
-111 -106 -148 -23 -66 -114 -185 -216 -284 -71 -69 -82 -77 -100 -67 -12 6
-21 18 -21 27 0 9 -44 -48 -98 -128 -195 -286 -295 -408 -328 -395 -9 3 -15
-6 -19 -32 -12 -74 -48 -178 -87 -257 -36 -70 -84 -186 -87 -207 -1 -5 -1 -16
-1 -25 0 -40 -13 3 -24 79 l-13 83 -11 -85 c-7 -47 -13 -98 -15 -115 -2 -26
-6 -30 -37 -33 -91 -8 -294 -55 -413 -96 -73 -24 -133 -44 -134 -42 -3 2 88
466 138 701 48 227 156 699 202 879 l33 130 149 76 c409 209 869 367 1378 476
43 9 77 18 75 19 -8 8 -422 -48 -554 -74 -312 -63 -610 -144 -799 -219 -100
-40 -184 -72 -187 -72 -14 0 142 542 227 790 67 196 118 266 229 319 33 16 97
45 141 66 107 49 115 57 115 118 0 42 4 53 30 77 17 16 50 36 74 45 43 16 44
18 39 54 -5 35 -3 38 36 56 23 10 46 24 52 32 9 10 5 10 -17 -2 -41 -21 -50
-19 -134 21 l-75 37 138 23 c75 13 145 28 155 34 13 9 10 10 -18 5 -109 -17
-125 -17 -149 2 l-23 19 46 38 46 37 0 -27 c0 -27 0 -27 22 -8 11 10 40 48 63
84 44 67 81 107 90 98 10 -10 -27 -88 -47 -99 -11 -6 -18 -13 -15 -15 5 -5
148 54 161 66 5 5 -4 22 -22 39 -34 35 -64 39 -119 16 -20 -8 -38 -13 -40 -11
-22 22 178 185 321 262 56 30 57 32 29 36 -44 6 -87 -9 -123 -42 -39 -37 -44
-37 -36 -4 4 14 2 32 -4 39 -8 10 11 25 82 65 120 68 248 152 273 180 l20 23
-50 -8 c-27 -4 -84 -18 -125 -31 -41 -13 -76 -21 -78 -19 -12 11 36 59 125
126 100 75 143 114 143 132 0 5 -7 6 -16 3 -9 -3 -28 -9 -42 -12 -26 -6 -26
-5 5 15 36 23 63 68 63 104 0 21 16 37 37 37 7 0 -3 -99 -15 -142 -5 -21 -8
-38 -6 -38 31 0 164 100 164 122 0 14 -58 -20 -75 -44 -16 -23 -16 -22 -11 12
28 175 29 179 125 222 70 32 69 48 -1 48 -20 0 -40 5 -44 11 -10 17 18 30 51
23 27 -6 28 -5 15 11 -8 9 -23 20 -34 24 -14 6 3 15 67 35 48 14 87 28 87 30
0 2 -23 4 -51 4 -59 0 -76 11 -61 39 15 27 2 41 -38 45 l-35 3 141 137 c113
109 149 138 178 143 31 6 36 11 36 35 0 26 4 28 103 54 56 15 117 29 136 29
19 1 36 8 39 16 3 10 -2 12 -22 7 -24 -6 -26 -4 -26 23 0 28 3 30 48 36 26 4
67 13 92 20 l45 13 -65 1 -65 1 38 22 c41 25 49 39 15 31 -33 -9 -78 -42 -78
-59 0 -20 -14 -18 -35 6 -10 11 -15 26 -11 36 5 13 2 15 -16 10 -89 -25 -100
-16 -40 34 49 41 283 157 350 172 28 7 52 16 52 20 0 12 -47 21 -62 12 -11 -6
-11 -4 0 7 8 9 34 14 72 14 64 0 79 14 39 36 -17 9 -32 8 -63 -1 -47 -14 -188
-83 -229 -112 -15 -11 -34 -21 -42 -22 -8 -1 -26 -13 -40 -26 -17 -16 -25 -19
-25 -9 0 37 60 95 210 204 87 63 162 121 166 127 5 8 -2 9 -25 5 -104 -21
-469 -225 -540 -301 -29 -31 -43 -19 -31 25 13 44 -5 35 -53 -26 -44 -56 -60
-92 -71 -157 -6 -35 -28 -54 -47 -42 -13 8 -11 46 6 93 l14 41 -28 0 c-50 0
-65 -29 -58 -115 7 -93 -10 -101 -49 -24 l-26 52 -53 -96 c-64 -117 -111 -182
-166 -232 -32 -29 -43 -34 -50 -24 -14 23 -10 62 11 104 l19 40 -23 -28 c-12
-15 -53 -78 -89 -140 -37 -62 -71 -119 -76 -126 -8 -12 -13 -11 -29 9 -27 33
-46 21 -60 -40 -17 -73 -15 -110 8 -147 19 -32 19 -33 1 -33 -45 0 -67 51 -58
136 6 58 0 65 -28 34 -14 -16 -20 -43 -24 -118 l-6 -97 -39 104 c-44 116 -56
123 -27 16 11 -38 18 -71 16 -74 -12 -11 -35 12 -35 34 0 17 -4 24 -11 19 -11
-7 -11 -15 7 -201 8 -74 -6 -87 -59 -56 l-33 20 4 -27 c2 -15 -3 -56 -12 -91
-19 -71 -42 -105 -61 -89 -18 15 -38 94 -33 130 5 35 5 35 -27 14 -18 -12 -28
-13 -44 -4 -24 12 -22 20 -24 -95 l-2 -80 -37 -3 c-37 -3 -38 -4 -38 -42 0
-50 -44 -120 -76 -120 -46 0 -64 -35 -121 -240 l-18 -65 -5 44 c-3 25 -10 46
-17 48 -16 6 -68 -109 -87 -196 -19 -83 -56 -193 -79 -237 -16 -28 -16 -24
-16 91 0 66 4 144 8 173 4 28 5 52 1 52 -9 0 -50 -75 -61 -113 -5 -17 -23
-122 -39 -231 -16 -110 -34 -204 -39 -209 -6 -6 -14 7 -22 34 -14 49 -29 73
-29 46 0 -10 -18 -37 -41 -62 -39 -42 -40 -47 -34 -87 4 -24 32 -118 61 -209
30 -92 54 -178 54 -193 0 -14 -22 -104 -49 -198 -58 -203 -112 -416 -175 -693
-26 -110 -51 -221 -57 -246 -9 -42 -14 -47 -67 -72 -34 -16 -94 -62 -147 -110
-50 -46 -137 -115 -195 -155 -58 -40 -145 -106 -195 -147 -49 -41 -90 -73 -91
-72 0 1 1 19 3 39 4 32 7 36 23 26 9 -6 26 -8 36 -4 18 7 17 9 -4 17 -13 5
-28 22 -35 38 l-13 30 -11 -29 c-6 -17 -18 -30 -27 -30 -13 0 -14 5 -6 26 6
14 10 39 10 55 0 34 16 69 31 69 6 0 8 -10 4 -22 -6 -23 -6 -23 15 2 12 13 40
56 62 95 23 38 48 81 57 95 l15 25 -25 -22 c-27 -24 -79 -41 -79 -25 0 5 7 15
15 22 8 7 15 17 15 23 0 5 -9 2 -20 -8 -29 -26 -26 -2 6 53 19 32 23 47 15 55
-15 15 -14 27 3 27 8 0 18 10 22 22 3 12 22 45 41 75 46 73 49 83 25 83 -34 0
-36 30 -2 43 27 10 29 15 24 43 -3 17 1 59 10 94 22 86 21 86 -23 -7 -38 -79
-78 -122 -101 -108 -28 18 17 85 57 85 14 0 13 24 -3 82 -4 13 -1 16 10 12 9
-4 16 -1 16 6 0 6 -9 14 -20 17 -30 8 -24 23 9 23 46 0 45 15 -2 35 l-42 17
30 8 c17 5 48 12 69 17 22 4 42 14 44 22 3 10 0 12 -14 7 -10 -4 -15 -4 -11 0
4 4 -1 13 -11 20 -16 12 -16 14 5 34 29 27 55 77 51 98 -2 11 -15 0 -41 -35
-35 -47 -63 -70 -75 -59 -12 13 -3 61 14 71 76 41 187 203 201 290 l6 40 -37
-47 c-60 -77 -129 -117 -162 -93 -17 12 -15 16 24 69 l43 56 -34 96 -35 95 74
115 c41 64 68 114 61 111 -10 -4 -13 2 -10 21 l5 27 -20 -30 c-10 -16 -29 -39
-42 -50 l-23 -20 16 30 c18 36 34 115 20 100 -5 -5 -33 -65 -63 -132 -29 -68
-56 -123 -59 -123 -4 0 -12 5 -18 11 -9 9 -18 8 -38 -5 -23 -15 -24 -18 -10
-32 11 -11 15 -36 15 -85 0 -85 -11 -109 -49 -109 l-28 0 18 67 c36 127 17
133 -45 14 -25 -49 -40 -97 -54 -181 -11 -63 -21 -111 -21 -106 -2 23 -29 -20
-35 -56 -4 -23 -12 -45 -17 -49 -7 -4 -5 -19 5 -44 21 -49 20 -55 -6 -52 -15
1 -23 -4 -26 -17 -3 -15 1 -18 22 -14 23 5 26 2 26 -21 0 -14 -9 -46 -20 -70
-11 -24 -20 -53 -21 -65 0 -16 -5 -11 -20 19 -17 37 -18 38 -19 13 0 -15 -7
-33 -15 -42 -17 -16 -20 -36 -6 -36 13 0 23 -34 15 -54 -3 -9 -14 -16 -24 -16
-20 0 -22 -3 -45 -105 -58 -253 -94 -489 -87 -572 4 -50 2 -53 -23 -63 -22 -8
-26 -15 -21 -33 15 -48 18 -95 7 -101 -7 -5 -11 2 -11 16 0 13 -5 30 -10 38
-15 24 -13 -15 5 -85 12 -45 13 -65 5 -85 -8 -19 -8 -40 0 -75 6 -29 7 -51 2
-53 -5 -1 -5 -24 0 -55 23 -134 30 -119 -104 -237 l-120 -105 -92 -185 c-51
-102 -108 -225 -128 -275 l-36 -89 -6 39 c-36 241 -50 443 -48 695 6 742 66
1277 207 1855 67 274 147 504 238 680 144 281 294 429 486 478 34 9 48 16 41
23 -7 7 4 21 34 43 44 33 45 34 24 50 -19 16 -20 19 -5 48 28 54 193 189 299
246 l53 28 -50 -6 c-27 -4 -70 -15 -95 -25 -86 -34 -87 -34 -55 -6 17 15 48
39 70 54 94 63 185 133 185 142 0 6 -15 4 -36 -5 -20 -8 -39 -15 -42 -15 -4 0
23 30 60 68 36 37 129 146 206 242 128 161 197 237 262 289 20 17 22 20 7 21
-9 0 -26 9 -38 21 l-21 21 34 22 c18 13 53 30 78 39 25 8 38 16 29 16 -8 1
-30 16 -48 35 -18 19 -45 37 -60 41 l-26 7 38 33 c53 46 133 86 272 135 118
42 261 107 253 116 -3 2 -31 -6 -64 -17 -121 -43 -252 -71 -240 -51 3 5 -9 7
-27 5 l-32 -4 22 19 c13 11 72 48 133 82 105 59 128 76 117 86 -2 2 -41 -7
-85 -22 -45 -14 -88 -24 -97 -22 -8 1 46 37 120 78 123 68 153 90 125 90 -18
0 -10 15 18 32 l27 17 -25 0 c-14 1 -45 -4 -69 -10 -24 -5 -46 -8 -48 -5 -7 6
87 56 140 73 44 14 47 17 32 33 -35 39 -18 59 110 123 l90 46 -41 0 c-27 1
-50 8 -65 21 l-24 20 35 -5 c38 -7 95 9 86 24 -3 5 -22 12 -41 15 -19 4 -35
11 -35 16 0 5 25 16 55 25 57 16 79 42 26 30 -45 -10 -47 13 -2 25 46 12 96
51 104 80 7 26 4 25 -46 -9 -54 -36 -142 -81 -161 -81 -32 0 -24 19 11 30 21
7 112 49 203 94 132 64 159 82 138 84 -28 3 -38 25 -17 37 5 4 32 8 58 9 59 4
95 26 126 81 27 46 36 105 11 73 -7 -10 -28 -21 -47 -25 -34 -6 -34 -6 -18 17
9 13 61 49 117 80 113 62 172 107 92 71 -25 -11 -63 -20 -85 -20 l-40 0 57 24
c117 48 154 95 76 95 l-42 0 70 42 c38 23 90 58 115 77 26 20 55 41 65 48 16
10 13 12 -26 13 l-45 1 69 36 c64 34 184 133 161 132 -5 0 -44 -17 -84 -37z
m-921 -3911 c0 -27 -9 -30 -42 -19 l-30 11 28 18 c31 20 44 17 44 -10z m-3440
-619 c0 -4 23 -48 51 -96 68 -119 63 -158 -7 -55 -63 90 -87 136 -79 149 7 12
35 13 35 2z m1913 -648 c7 -7 -11 -46 -26 -56 -19 -12 -37 4 -37 33 0 25 4 29
28 29 16 0 32 -3 35 -6z m2394 -460 c-3 -3 -12 -4 -19 -1 -8 3 -5 6 6 6 11 1
17 -2 13 -5z m-1932 -345 c-35 -178 -82 -427 -105 -554 -53 -296 -130 -750
-130 -763 0 -6 -72 -47 -160 -92 -88 -44 -188 -98 -221 -120 -34 -22 -64 -38
-66 -36 -3 2 -6 143 -8 313 -2 169 -7 391 -10 493 -5 146 -4 196 8 238 12 46
13 58 1 82 -11 20 -12 35 -4 54 14 39 30 22 30 -32 l0 -47 22 34 c18 28 23 54
26 128 l4 93 107 102 c58 57 156 143 216 191 106 85 345 251 351 244 2 -2 -25
-149 -61 -328z m1735 288 c0 -2 -10 -12 -22 -23 l-23 -19 19 23 c18 21 26 27
26 19z m3283 -94 c-7 -2 -21 -2 -30 0 -10 3 -4 5 12 5 17 0 24 -2 18 -5z
m-3453 -67 c0 -2 -8 -10 -17 -17 -16 -13 -17 -12 -4 4 13 16 21 21 21 13z
m3175 -42 c-71 -8 -163 -8 -158 -1 2 4 46 6 96 5 51 0 79 -3 62 -4z m-5475
-816 c-1 -158 -3 -208 -11 -194 -23 38 -24 -6 -7 -176 9 -95 17 -248 17 -340
l1 -166 -50 -42 c-41 -34 -451 -555 -510 -647 -8 -13 -17 -23 -21 -23 -3 0
-21 121 -38 269 -37 300 -38 271 24 521 75 300 196 584 360 848 57 92 58 93
71 67 7 -14 18 -69 24 -122 6 -53 13 -99 16 -102 3 -3 2 37 -1 89 -8 112 10
108 22 -5 l8 -70 6 120 c7 135 20 187 30 120 l5 -40 8 30 c9 31 33 75 41 75 3
0 5 -96 5 -212z m1911 -205 c22 3 39 4 39 2 0 -1 -12 -11 -27 -21 -45 -29 -92
-16 -93 24 0 10 5 10 21 1 12 -6 39 -9 60 -6z m-55 -68 c-22 -17 -66 -20 -66
-6 0 6 15 12 33 14 17 2 37 4 42 5 6 1 1 -5 -9 -13z m-611 -94 c-4 -34 -12
-61 -17 -61 -11 0 -5 100 7 120 13 22 17 0 10 -59z m2851 -228 c-3 -3 -18 3
-33 13 l-28 18 30 6 c24 4 31 2 33 -13 2 -10 1 -21 -2 -24z m-2712 31 l46 -7
-36 -66 c-42 -75 -63 -103 -74 -96 -4 3 -10 -5 -14 -18 -3 -12 -30 -47 -61
-77 l-55 -54 0 92 0 93 -80 -62 -80 -61 0 -75 c0 -66 -2 -74 -15 -63 -13 11
-15 4 -15 -49 0 -79 -30 -154 -102 -252 -199 -270 -436 -648 -593 -942 -31
-59 -59 -107 -60 -105 -2 2 19 131 45 288 110 652 181 1062 203 1180 l23 125
42 23 c88 49 306 111 442 125 63 7 336 7 384 1z m578 -108 c84 -24 168 -50
187 -58 l35 -14 -119 -64 c-146 -79 -351 -215 -464 -307 -130 -106 -122 -101
-109 -56 5 21 14 43 18 48 4 6 8 21 8 35 0 14 12 63 27 110 24 75 35 93 97
160 38 41 86 101 106 132 20 31 42 57 49 57 6 1 81 -19 165 -43z m-282 -37 c7
-11 9 -27 6 -34 -11 -31 -126 -40 -126 -10 0 7 9 24 21 39 26 34 83 37 99 5z
m-1234 -195 c-34 -200 -137 -862 -181 -1159 -19 -132 -38 -255 -41 -274 -3
-18 -23 -68 -45 -110 -32 -60 -39 -69 -34 -41 13 74 48 205 66 247 10 23 16
43 14 43 -2 0 -32 -46 -67 -102 l-63 -101 -7 49 c-4 27 -14 333 -22 679 l-15
630 32 28 c116 100 379 285 385 269 1 -5 -8 -76 -22 -158z m2929 94 c4 -3 -38
-84 -93 -180 -55 -95 -123 -219 -153 -275 l-54 -102 -75 72 c-101 97 -365 337
-417 380 l-41 34 56 16 c77 21 206 47 289 57 75 9 479 8 488 -2z m-785 -174
c89 -68 343 -279 433 -360 l40 -37 -54 -109 -54 -109 -40 6 c-405 54 -902 13
-1275 -106 -87 -28 -233 -94 -298 -136 -29 -18 -55 -33 -58 -33 -11 0 84 126
172 229 229 267 515 503 764 631 78 40 255 108 265 102 5 -3 53 -38 105 -78z
m-1070 26 c-12 -16 -24 -30 -26 -30 -3 0 4 14 16 30 12 17 24 30 26 30 3 0 -4
-13 -16 -30z m-1506 -522 c3 -216 11 -533 17 -704 l9 -310 -74 -155 c-74 -153
-152 -361 -176 -472 -8 -32 -17 -60 -22 -63 -4 -3 -8 50 -9 118 0 68 -4 276
-9 463 -7 329 -9 346 -43 530 -19 105 -39 215 -45 245 -7 41 -10 -32 -11 -290
0 -190 -6 -421 -13 -513 l-11 -168 -36 3 -36 3 -51 430 -51 430 30 85 c60 174
161 358 276 503 64 80 229 257 241 257 4 0 10 -177 14 -392z m1376 368 c0 -2
-8 -10 -17 -17 -16 -13 -17 -12 -4 4 13 16 21 21 21 13z m-2616 -296 c33 -140
158 -614 223 -845 62 -220 66 -242 94 -495 17 -146 36 -291 43 -322 l13 -58
-43 -87 c-25 -51 -45 -81 -48 -73 -34 101 -129 410 -140 455 l-14 60 -1 -81
c-1 -96 22 -409 45 -607 8 -76 14 -141 12 -143 -9 -8 -126 575 -157 782 -10
71 -20 113 -20 93 -1 -20 8 -103 19 -185 11 -82 27 -219 35 -304 25 -260 62
-462 111 -609 18 -54 24 -91 22 -135 l-3 -61 -37 135 c-145 525 -210 978 -248
1750 -11 223 -1 405 40 677 11 74 20 140 20 146 1 25 18 -21 34 -93z m560
-132 l26 -177 -34 -103 c-19 -57 -39 -129 -46 -161 -6 -32 -13 -57 -15 -55 -2
2 1 77 5 168 12 218 32 511 35 508 2 -2 15 -83 29 -180z m1528 -35 c-3 -101
-9 -141 -47 -283 -24 -91 -59 -224 -79 -296 -19 -73 -44 -149 -55 -170 l-21
-39 6 50 c3 28 15 91 25 142 18 92 59 360 59 390 0 38 -11 0 -24 -83 -88 -553
-86 -541 -144 -669 -263 -580 -310 -708 -352 -952 -16 -98 -24 -120 -57 -167
-21 -31 -41 -55 -44 -56 -7 0 -19 357 -19 547 0 112 4 137 35 246 120 425 229
674 472 1082 89 149 237 375 246 375 1 0 1 -53 -1 -117z m222 -68 c-4 -8 -10
-15 -15 -15 -5 0 -9 7 -9 15 0 8 7 15 15 15 9 0 12 -6 9 -15z m-62 -32 c3 -32
-7 -53 -59 -133 -33 -52 -80 -130 -103 -173 -23 -43 -44 -76 -46 -74 -11 11
57 333 74 348 31 28 98 69 113 69 13 0 19 -9 21 -37z m1723 -9 c83 -9 151 -18
152 -19 2 -1 -56 -120 -128 -266 -215 -434 -442 -934 -769 -1694 -94 -220
-191 -434 -214 -475 -83 -144 -164 -318 -238 -510 l-29 -75 6 108 c3 59 8 155
11 215 4 59 3 104 -1 100 -4 -4 -18 -35 -31 -70 -27 -75 -28 -71 -9 47 16 95
19 207 6 239 -5 14 -13 -1 -28 -55 -26 -92 -174 -511 -211 -599 l-27 -65 -11
228 -11 228 108 179 c59 98 152 234 206 302 54 68 186 254 293 413 107 160
215 312 240 339 53 58 33 49 -81 -35 -96 -71 -183 -142 -252 -208 l-48 -46 5
35 c17 103 26 179 35 315 23 311 17 340 -19 100 -24 -160 -61 -277 -131 -416
-21 -42 -56 -120 -78 -173 -30 -71 -59 -121 -110 -184 -39 -48 -94 -126 -123
-174 -29 -48 -56 -87 -59 -88 -4 0 -8 46 -9 103 -1 56 -5 152 -9 212 -6 107
-6 102 -19 -150 l-14 -260 -83 -155 c-46 -85 -101 -194 -123 -242 -22 -48 -55
-106 -74 -130 -18 -24 -34 -45 -35 -47 -8 -12 -12 20 -23 182 -12 175 -12 179
11 240 61 169 124 318 156 369 19 31 48 97 64 145 17 48 47 124 68 168 21 44
56 117 76 162 38 81 39 82 79 88 85 10 89 12 34 14 -32 0 -58 4 -58 7 0 23
222 402 333 569 256 384 520 682 887 1005 47 41 -55 -34 -170 -126 -347 -276
-807 -771 -1056 -1133 l-49 -71 -7 43 c-3 23 -7 119 -7 214 -1 103 -5 174 -11
178 -6 4 -10 -6 -10 -22 0 -34 -36 -285 -50 -350 -6 -27 -27 -100 -46 -164
l-36 -115 -155 0 -155 1 6 140 c4 77 9 158 11 180 l5 40 -16 -35 c-9 -19 -22
-66 -29 -105 l-13 -70 -1 70 c-1 67 2 76 57 187 210 419 583 788 1014 1004
171 86 326 132 558 167 67 11 311 5 445 -9z m-3280 -739 c25 -170 48 -321 50
-335 5 -22 -1 -28 -41 -48 -26 -12 -48 -21 -49 -20 -1 2 -19 49 -39 106 l-38
103 11 142 c15 181 48 400 57 372 2 -5 24 -149 49 -320z m151 -427 c-3 -18 -8
-72 -12 -120 -4 -49 -10 -88 -14 -88 -4 0 -10 33 -14 73 -3 39 -9 93 -12 120
l-7 47 33 0 c31 0 32 -1 26 -32z m-63 -170 c15 -101 27 -192 27 -203 -1 -11
-18 27 -40 85 -21 58 -52 142 -68 188 l-31 82 27 15 c55 29 55 29 85 -167z
m1047 -217 c0 -41 -3 -50 -20 -54 -16 -4 -20 -1 -16 11 3 9 8 31 12 47 14 62
24 60 24 -4z m-1397 -86 c21 -66 29 -127 46 -345 12 -146 21 -269 21 -275 -1
-16 -37 80 -92 244 l-51 154 6 106 c6 115 24 218 37 204 4 -4 19 -44 33 -88z
m877 -255 l11 -176 -47 -77 c-25 -43 -57 -108 -70 -145 l-24 -67 0 115 c0 97
8 157 51 385 28 149 54 277 57 285 4 8 8 -21 9 -65 1 -44 7 -159 13 -255z
m823 108 c-39 -68 -105 -186 -148 -263 -42 -77 -79 -142 -82 -145 -3 -3 -3 42
1 100 3 58 9 158 12 222 l7 116 61 28 c63 29 208 74 215 68 2 -2 -28 -59 -66
-126z m-283 -368 l11 -114 -46 -67 c-76 -111 -79 -111 -72 6 3 55 3 120 -2
145 l-8 45 -26 -55 c-14 -30 -26 -49 -26 -43 -1 7 10 90 24 185 14 95 25 173
25 174 0 1 21 16 48 34 l47 31 7 -113 c4 -62 12 -165 18 -228z m-1030 -298 c0
-46 -7 -38 -24 29 -14 54 -14 54 5 30 11 -13 19 -39 19 -59z m599 -169 c1
-104 4 -226 7 -273 l6 -85 -24 32 c-12 17 -35 39 -50 48 -24 14 -28 22 -28 64
0 74 68 401 84 401 2 0 4 -84 5 -187z m-564 46 c15 -28 25 -58 23 -67 -2 -11
-11 -1 -25 28 -44 92 -42 126 2 39z m1464 -775 c-29 -41 -61 -81 -71 -88 -10
-7 -38 -32 -63 -55 -24 -22 -49 -41 -54 -41 -26 0 -10 96 40 233 67 188 111
301 118 307 3 3 7 12 9 20 2 8 18 49 35 90 l32 75 3 -233 2 -233 -51 -75z
m-378 242 c-10 -12 -28 -37 -40 -56 l-21 -35 5 75 c3 41 20 124 38 183 l32
108 3 -127 c2 -114 1 -129 -17 -148z m-101 -590 c0 -2 -8 -10 -17 -17 -16 -13
-17 -12 -4 4 13 16 21 21 21 13z"/>
<path d="M1955 6107 c-3 -12 -2 -34 4 -47 9 -22 10 -19 10 23 1 51 -5 61 -14
24z"/>
<path d="M1931 5894 c0 -11 3 -14 6 -6 3 7 2 16 -1 19 -3 4 -6 -2 -5 -13z"/>
<path d="M1951 5734 c0 -11 3 -14 6 -6 3 7 2 16 -1 19 -3 4 -6 -2 -5 -13z"/>
<path d="M1962 5685 c0 -16 4 -43 8 -60 11 -42 11 -1 1 50 -7 34 -9 35 -9 10z"/>
<path d="M793 3385 c0 -22 2 -30 4 -17 2 12 2 30 0 40 -3 9 -5 -1 -4 -23z"/>
<path d="M5175 10938 c-11 -6 -25 -18 -31 -27 -10 -13 -4 -18 35 -31 25 -9 48
-15 49 -14 2 2 1 21 -3 43 -7 43 -17 48 -50 29z"/>
<path d="M3880 10389 c-15 -36 -15 -86 0 -124 l12 -30 24 75 c14 41 26 82 29
90 3 11 -3 15 -25 16 -23 1 -31 -5 -40 -27z"/>
<path d="M7706 6821 c-3 -5 12 -20 34 -35 l40 -26 0 35 c0 33 -2 35 -34 35
-19 0 -37 -4 -40 -9z"/>
<path d="M6490 6728 c-19 -31 -28 -109 -12 -107 15 1 92 129 78 129 -8 0 -21
3 -30 6 -10 4 -22 -5 -36 -28z"/>
</g>
</svg>
