<?xml version="1.0" encoding="utf-8"?>
<!-- Svg Vector Icons : http://www.onlinewebfonts.com/icon -->
<!DOCTYPE svg PUBLIC "-//W3C//DTD SVG 1.1//EN" "http://www.w3.org/Graphics/SVG/1.1/DTD/svg11.dtd">
<svg version="1.1" xmlns="http://www.w3.org/2000/svg" xmlns:xlink="http://www.w3.org/1999/xlink" x="0px" y="0px" viewBox="0 0 1000 1000" enable-background="new 0 0 1000 1000" xml:space="preserve">
<metadata> Svg Vector Icons : http://www.onlinewebfonts.com/icon </metadata>
<g><g transform="translate(0.000000,511.000000) scale(0.100000,-0.100000)"><path d="M4701.8,4303C3216.5,4197.2,1879.3,3296.8,1231,1965.4c-127-259.7-228.9-527.2-282.8-735L913.5,1090H501.8c-369.4,0-411.7-3.8-400.2-30.8C122.8,1007.3,1229.1-832,1248.3-843.6c17.3-9.6,1131.3,1827.8,1148.6,1897c9.6,34.6-9.6,36.6-444.4,36.6c-379,0-454.1,3.9-454.1,26.9c0,15.4,26.9,103.9,59.6,196.3c400.2,1137.1,1364.1,2020.2,2528.1,2322.2c269.4,69.3,398.3,90.4,684.9,109.7c1416,94.3,2766.6-654.1,3440-1904.7c107.7-202,167.4-254,298.2-265.5c127-9.6,221.3,38.5,269.4,138.5c48.1,102,36.5,171.2-55.8,350.2C8164.9,3127.5,7176,3902.8,6012,4189.5C5596.4,4289.6,5117.4,4331.9,4701.8,4303z"/><path d="M4730.7,2169.4c-9.6-21.2-19.2-109.7-19.2-198.2v-161.6l-136.6-34.6c-488.7-125.1-786.9-484.8-786.9-944.7c0-473.3,298.2-821.5,815.8-952.4c84.6-21.2,200.1-38.5,259.7-38.5c357.9,0,631.1-88.5,729.2-234.7c73.1-111.6,80.8-280.9,19.2-400.2c-96.2-178.9-325.1-261.7-686.8-246.3c-188.6,7.7-223.2,15.4-336.7,71.2c-92.4,46.2-142.4,84.7-184.7,148.1c-32.7,46.2-61.6,84.7-63.5,84.7c-1.9,0-111.6-34.6-244.3-73.1c-279-84.7-286.7-96.2-198.2-257.8c121.2-227,379-411.7,677.2-488.7l136.6-34.6v-161.6c0-240.5-7.7-234.7,290.5-234.7c182.8,0,252,5.8,257.8,25c5.8,11.5,11.6,100,13.5,194.3l5.8,169.3l163.5,48.1c490.6,140.4,769.6,481,769.6,938.9c0,369.4-194.3,683-521.4,844.6c-200.1,98.1-309.8,123.1-669.5,155.8c-286.7,25-329,32.7-438.7,86.6c-159.7,78.9-223.2,169.3-232.8,334.8c-19.2,309.8,240.5,469.4,725.3,450.2c188.5-7.7,223.2-15.4,336.7-71.2c92.3-46.2,142.4-84.6,184.7-148.1c32.7-46.2,61.6-84.7,63.5-84.7c1.9,0,111.6,34.6,244.4,73.1c203.9,63.5,240.5,80.8,246.3,115.4c9.6,63.5-90.4,230.9-207.8,350.2c-127,127-282.8,213.6-500.2,275.1l-163.5,48.1l-1.9,165.5c-1.9,90.4-7.7,178.9-15.4,194.3c-7.7,23.1-55.8,28.9-259.7,28.9C4773,2205.9,4749.9,2202.1,4730.7,2169.4z"/><path d="M8172.6,135.7c-307.8-515.6-565.7-952.4-569.5-971.6c-9.6-34.6,9.6-36.5,446.4-36.5h457.9l-13.5-61.6c-23.1-121.2-205.8-544.5-319.4-744.6C7676.2-2552,6827.8-3190.8,5836.9-3439c-461.7-115.4-1071.6-123.1-1573.8-23.1c-1027.4,209.7-1956.7,886.9-2437.7,1779.6c-48.1,88.5-117.4,196.3-155.8,238.6c-63.5,71.2-78.9,78.9-182.8,84.7c-136.6,9.6-215.5-30.8-263.6-134.7c-50-103.9-40.4-171.3,53.9-352.1c406-777.3,1040.9-1400.6,1823.9-1797c527.2-265.5,1042.8-404,1643.1-440.6c1646.9-103.9,3193.8,763.8,3973,2229.9c128.9,240.5,265.5,582.9,327.1,813.8l44.2,167.4h409.8c369.4,0,411.7,3.8,400.2,30.8c-21.2,52-1127.4,1891.3-1146.7,1902.8C8742.1,1066.9,8482.4,651.3,8172.6,135.7z"/></g></g>
</svg>