<svg width="33" height="26" viewBox="0 0 33 26" fill="none" xmlns="http://www.w3.org/2000/svg">
<circle cx="16" cy="13" r="13" fill="#FF55BA" fill-opacity="0.2"/>
<g filter="url(#filter0_d)">
<path d="M15.0354 13.3197C15.0641 13.3245 15.0929 13.3269 15.1216 13.3269C15.1552 13.3269 15.1887 13.3269 15.2223 13.3269C15.6393 13.3269 16.0323 13.2382 16.4014 13.0609C16.7752 12.8787 17.1011 12.6487 17.3791 12.3707C17.6571 12.0927 17.8752 11.7836 18.0334 11.4433C18.1963 11.103 18.2778 10.7722 18.2778 10.4511C18.2778 10.2211 18.2347 10.003 18.1484 9.79687C18.0669 9.59078 17.9351 9.41104 17.753 9.25767C17.5756 9.10429 17.3456 8.98207 17.0628 8.89101C16.7848 8.79994 16.4517 8.75441 16.0635 8.75441C15.6273 8.75441 15.2511 8.79515 14.9347 8.87663C14.6232 8.95811 14.3524 9.06355 14.1223 9.19296C13.897 9.32237 13.7053 9.47095 13.5472 9.63871C13.3938 9.80646 13.2596 9.97901 13.1446 10.1563C13.0343 10.3337 12.9337 10.5062 12.8426 10.674C12.7515 10.8417 12.6557 10.9903 12.555 11.1197C12.4592 11.2491 12.3513 11.3546 12.2315 11.4361C12.1117 11.5175 11.9631 11.5583 11.7858 11.5583C11.5461 11.5583 11.3664 11.4984 11.2465 11.3785C11.1267 11.2539 11.0668 11.0814 11.0668 10.8609C11.0668 10.6548 11.1219 10.4319 11.2322 10.1923C11.3472 9.95265 11.5078 9.713 11.7139 9.47335C11.9247 9.2337 12.1812 9.00364 12.4831 8.78317C12.7851 8.5579 13.123 8.36139 13.4968 8.19363C13.8755 8.02109 14.2877 7.88449 14.7334 7.78384C15.1792 7.67839 15.6513 7.62567 16.1497 7.62567C16.6386 7.62567 17.1059 7.68798 17.5517 7.8126C18.0022 7.93721 18.4 8.12414 18.7451 8.37337C19.0902 8.61781 19.3634 8.92696 19.5647 9.30081C19.7708 9.67465 19.8738 10.1108 19.8738 10.6093C19.8738 10.9448 19.8115 11.2659 19.6869 11.5727C19.5671 11.8746 19.4041 12.1598 19.198 12.4282C18.9919 12.6918 18.7499 12.9363 18.4719 13.1615C18.1987 13.382 17.9063 13.5785 17.5948 13.7511C17.2833 13.9236 16.9621 14.0698 16.6314 14.1896C16.3055 14.3094 15.9892 14.3957 15.6824 14.4484C15.7256 14.6737 15.7951 14.9277 15.8909 15.2105C15.9916 15.4885 16.1114 15.7545 16.2504 16.0085C16.3942 16.2578 16.5523 16.4711 16.7249 16.6484C16.8974 16.8257 17.0796 16.9216 17.2713 16.936C17.3096 16.9408 17.3456 16.9432 17.3791 16.9432C17.4127 16.9432 17.4462 16.9432 17.4798 16.9432C17.8297 16.9432 18.1412 16.8856 18.4144 16.7706C18.6876 16.6556 18.9153 16.5286 19.0974 16.3896C19.3131 16.2314 19.5 16.0469 19.6582 15.836C19.8067 15.6682 19.9577 15.5844 20.1111 15.5844C20.207 15.5844 20.2884 15.6179 20.3555 15.685C20.4226 15.7521 20.4562 15.8432 20.4562 15.9582C20.4562 16.0684 20.4202 16.1979 20.3483 16.3464C20.2812 16.4902 20.1638 16.6412 19.9961 16.7994C19.5024 17.2643 19.0183 17.6046 18.5438 17.8203C18.0741 18.0312 17.6284 18.1366 17.2066 18.1366C16.8615 18.1366 16.5428 18.0383 16.2504 17.8418C15.958 17.6453 15.692 17.3793 15.4524 17.0438C15.2127 16.7083 14.9946 16.3177 14.7981 15.8719C14.6016 15.4214 14.4267 14.9469 14.2733 14.4484C14.187 14.6449 14.0983 14.8774 14.0073 15.1458C13.9162 15.4094 13.818 15.6826 13.7125 15.9654C13.6071 16.2482 13.4968 16.5286 13.3818 16.8066C13.2668 17.0798 13.1398 17.3266 13.0008 17.5471C12.8618 17.7627 12.7132 17.9377 12.555 18.0719C12.3969 18.2061 12.2243 18.2732 12.0374 18.2732C11.884 18.2732 11.7594 18.2492 11.6635 18.2013C11.5677 18.1534 11.4934 18.0935 11.4407 18.0216C11.3879 17.9497 11.3496 17.8706 11.3256 17.7843C11.3065 17.698 11.2969 17.6166 11.2969 17.5399C11.2969 17.4296 11.3113 17.317 11.34 17.202C11.3688 17.0869 11.4095 16.9791 11.4622 16.8785L13.5831 12.9962C13.7652 12.6702 13.9474 12.3563 14.1295 12.0544C14.3164 11.7476 14.4962 11.4768 14.6687 11.2419C14.846 11.0071 15.0114 10.8202 15.1648 10.6812C15.3229 10.5374 15.4643 10.4655 15.589 10.4655C15.6225 10.4655 15.6632 10.4727 15.7112 10.4871C15.7591 10.4966 15.8022 10.5182 15.8406 10.5518C15.8789 10.5805 15.9125 10.6261 15.9412 10.6884C15.97 10.7459 15.9844 10.8202 15.9844 10.9112C15.9844 11.0023 15.958 11.1293 15.9053 11.2923C15.8526 11.4552 15.7831 11.6422 15.6968 11.853C15.6105 12.0639 15.5099 12.2964 15.3948 12.5504C15.2798 12.7997 15.16 13.0561 15.0354 13.3197ZM21.9363 17.0007C21.9363 17.1493 21.9076 17.2906 21.8501 17.4248C21.7974 17.559 21.7231 17.6789 21.6272 17.7843C21.5361 17.885 21.4283 17.9641 21.3037 18.0216C21.1791 18.0839 21.0473 18.115 20.9083 18.115C20.7932 18.115 20.6854 18.0911 20.5847 18.0431C20.4841 18 20.3954 17.9401 20.3187 17.8634C20.2468 17.7867 20.1893 17.698 20.1462 17.5974C20.103 17.4919 20.0815 17.3817 20.0815 17.2667C20.0815 17.1229 20.1078 16.9863 20.1606 16.8569C20.2181 16.7227 20.2948 16.6053 20.3906 16.5046C20.4865 16.4039 20.5991 16.3249 20.7285 16.2674C20.8579 16.205 20.9969 16.1739 21.1455 16.1739C21.3804 16.1739 21.5697 16.253 21.7135 16.4111C21.8621 16.5693 21.9363 16.7658 21.9363 17.0007Z" fill="url(#paint0_linear)"/>
</g>
<defs>
<filter id="filter0_d" x="10.6988" y="7.44144" width="11.6057" height="11.3837" filterUnits="userSpaceOnUse" color-interpolation-filters="sRGB">
<feFlood flood-opacity="0" result="BackgroundImageFix"/>
<feColorMatrix in="SourceAlpha" type="matrix" values="0 0 0 0 0 0 0 0 0 0 0 0 0 0 0 0 0 0 127 0"/>
<feOffset dy="0.184049"/>
<feGaussianBlur stdDeviation="0.184049"/>
<feColorMatrix type="matrix" values="0 0 0 0 0 0 0 0 0 0 0 0 0 0 0 0 0 0 0.2 0"/>
<feBlend mode="normal" in2="BackgroundImageFix" result="effect1_dropShadow"/>
<feBlend mode="normal" in="SourceGraphic" in2="effect1_dropShadow" result="shape"/>
</filter>
<linearGradient id="paint0_linear" x1="16.4908" y1="6" x2="16.4908" y2="24" gradientUnits="userSpaceOnUse">
<stop stop-color="#9E00F6"/>
<stop offset="1" stop-color="#FA7564"/>
</linearGradient>
</defs>
</svg>
