<svg width="37" height="30" viewBox="0 0 37 30" fill="none" xmlns="http://www.w3.org/2000/svg">
<path d="M7.97424 20.335C7.99785 20.339 8.02146 20.3409 8.04506 20.3409C8.07261 20.3409 8.10015 20.3409 8.12769 20.3409C8.47001 20.3409 8.79265 20.2682 9.09562 20.1226C9.40253 19.9731 9.67008 19.7842 9.89829 19.556C10.1265 19.3278 10.3055 19.074 10.4354 18.7946C10.5692 18.5153 10.636 18.2438 10.636 17.9801C10.636 17.7913 10.6006 17.6122 10.5298 17.4431C10.4629 17.2739 10.3547 17.1263 10.2052 17.0004C10.0596 16.8745 9.87075 16.7742 9.63861 16.6994C9.4104 16.6246 9.13694 16.5873 8.81823 16.5873C8.46017 16.5873 8.1513 16.6207 7.89161 16.6876C7.63586 16.7545 7.41355 16.8411 7.22469 16.9473C7.03976 17.0535 6.88237 17.1755 6.75253 17.3132C6.62662 17.4509 6.51645 17.5926 6.42201 17.7382C6.33152 17.8837 6.24889 18.0254 6.17413 18.1631C6.09937 18.3008 6.02068 18.4228 5.93805 18.529C5.85936 18.6353 5.77083 18.7218 5.67246 18.7887C5.57409 18.8556 5.45212 18.889 5.30653 18.889C5.1098 18.889 4.96225 18.8399 4.86388 18.7415C4.76552 18.6392 4.71633 18.4975 4.71633 18.3166C4.71633 18.1474 4.76158 17.9644 4.85208 17.7677C4.94651 17.5709 5.07832 17.3742 5.24751 17.1775C5.42064 16.9807 5.63114 16.7919 5.87903 16.6109C6.12691 16.4259 6.40431 16.2646 6.71121 16.1269C7.02205 15.9853 7.36043 15.8731 7.72636 15.7905C8.09228 15.7039 8.47985 15.6607 8.88905 15.6607C9.29039 15.6607 9.67402 15.7118 10.0399 15.8141C10.4098 15.9164 10.7364 16.0699 11.0197 16.2745C11.303 16.4751 11.5272 16.7289 11.6925 17.0358C11.8617 17.3427 11.9463 17.7008 11.9463 18.11C11.9463 18.3854 11.8951 18.649 11.7928 18.9009C11.6945 19.1487 11.5607 19.3829 11.3915 19.6032C11.2223 19.8196 11.0236 20.0203 10.7954 20.2052C10.5711 20.3862 10.3311 20.5475 10.0754 20.6892C9.8196 20.8308 9.55598 20.9508 9.28449 21.0492C9.01693 21.1475 8.75724 21.2184 8.50542 21.2617C8.54083 21.4466 8.59789 21.6551 8.67658 21.8873C8.75921 22.1155 8.85757 22.3339 8.97168 22.5424C9.08972 22.747 9.21956 22.9221 9.36121 23.0677C9.50286 23.2133 9.65238 23.2919 9.80976 23.3037C9.84124 23.3077 9.87075 23.3097 9.89829 23.3097C9.92584 23.3097 9.95338 23.3097 9.98092 23.3097C10.2682 23.3097 10.5239 23.2624 10.7482 23.168C10.9725 23.0736 11.1594 22.9693 11.3089 22.8552C11.4859 22.7254 11.6394 22.5739 11.7692 22.4007C11.8912 22.263 12.0151 22.1942 12.1411 22.1942C12.2198 22.1942 12.2866 22.2217 12.3417 22.2768C12.3968 22.3319 12.4244 22.4066 12.4244 22.5011C12.4244 22.5916 12.3948 22.6978 12.3358 22.8198C12.2807 22.9378 12.1843 23.0618 12.0466 23.1916C11.6414 23.5733 11.244 23.8526 10.8544 24.0297C10.4688 24.2028 10.1029 24.2894 9.75665 24.2894C9.47335 24.2894 9.21169 24.2087 8.97168 24.0474C8.73166 23.8861 8.51329 23.6677 8.31656 23.3923C8.11982 23.1169 7.9408 22.7962 7.77947 22.4303C7.61815 22.0604 7.47454 21.6709 7.34863 21.2617C7.2778 21.423 7.20501 21.6138 7.13025 21.8341C7.0555 22.0506 6.97483 22.2748 6.88827 22.507C6.80171 22.7391 6.71121 22.9693 6.61678 23.1975C6.52235 23.4218 6.41808 23.6244 6.30397 23.8054C6.18987 23.9825 6.06789 24.1261 5.93805 24.2363C5.8082 24.3464 5.66656 24.4015 5.5131 24.4015C5.38719 24.4015 5.28489 24.3818 5.2062 24.3425C5.12751 24.3032 5.06652 24.254 5.02324 24.195C4.97996 24.1359 4.94848 24.071 4.92881 24.0002C4.91307 23.9294 4.9052 23.8625 4.9052 23.7995C4.9052 23.709 4.917 23.6166 4.94061 23.5221C4.96422 23.4277 4.99766 23.3392 5.04094 23.2565L6.78204 20.0695C6.93155 19.8019 7.08107 19.5442 7.23059 19.2963C7.38404 19.0445 7.53159 18.8222 7.67324 18.6294C7.81882 18.4366 7.95457 18.2831 8.08048 18.169C8.21032 18.051 8.32639 17.9919 8.4287 17.9919C8.45624 17.9919 8.48968 17.9978 8.52903 18.0097C8.56838 18.0175 8.60379 18.0352 8.63527 18.0628C8.66674 18.0864 8.69429 18.1238 8.71789 18.1749C8.7415 18.2221 8.75331 18.2831 8.75331 18.3579C8.75331 18.4326 8.73166 18.5369 8.68838 18.6707C8.6451 18.8045 8.58805 18.9579 8.51723 19.131C8.4464 19.3042 8.36377 19.495 8.26934 19.7035C8.17491 19.9081 8.07654 20.1186 7.97424 20.335ZM14.0625 23.3569C14.0625 23.4788 14.0389 23.5949 13.9917 23.7051C13.9484 23.8153 13.8874 23.9136 13.8087 24.0002C13.734 24.0828 13.6454 24.1477 13.5431 24.195C13.4408 24.2461 13.3326 24.2717 13.2185 24.2717C13.1241 24.2717 13.0356 24.252 12.9529 24.2127C12.8703 24.1772 12.7975 24.1281 12.7346 24.0651C12.6755 24.0022 12.6283 23.9294 12.5929 23.8467C12.5575 23.7602 12.5398 23.6697 12.5398 23.5752C12.5398 23.4572 12.5614 23.3451 12.6047 23.2388C12.6519 23.1287 12.7149 23.0323 12.7936 22.9496C12.8723 22.867 12.9647 22.8021 13.071 22.7549C13.1772 22.7037 13.2913 22.6781 13.4133 22.6781C13.6061 22.6781 13.7615 22.7431 13.8796 22.8729C14.0015 23.0027 14.0625 23.1641 14.0625 23.3569Z" fill="#333333"/>
<circle cx="9" cy="21" r="8.12569" stroke="#333333" stroke-width="1.74861"/>
<path d="M34.8908 18.7252V15C34.8908 12.6736 32.9984 10.7812 30.672 10.7812H28.5627V5.50781C28.5627 4.92636 29.0359 4.45312 29.6173 4.45312V2.34375C27.8727 2.34375 26.4533 3.76318 26.4533 5.50781V10.7812H21.8239L19.2927 2.34375H21.0392V0.234375H4.16422V2.34375H6.27359V9.07535C4.49133 9.53622 2.81619 10.3816 1.3833 11.5651L2.72638 13.1917C4.60861 11.6374 6.9921 10.7812 9.43765 10.7812C15.2533 10.7812 19.9845 15.5125 19.9845 21.3281V24.4922H24.4323C24.9361 27.4813 27.542 29.7656 30.672 29.7656C34.1613 29.7656 37.0002 26.9268 37.0002 23.4375C37.0002 21.5676 36.1847 19.8848 34.8908 18.7252V18.7252ZM8.38297 8.71664V2.34375H17.0905L19.6217 10.7812H16.4255C14.4216 9.44916 12.0189 8.67188 9.43765 8.67188C9.08472 8.67188 8.73288 8.68726 8.38297 8.71664V8.71664ZM18.8623 12.8906H30.672C31.8352 12.8906 32.7814 13.8368 32.7814 15V17.4714C32.1214 17.2374 31.4114 17.1094 30.672 17.1094H21.3699C20.8126 15.5381 19.9538 14.1085 18.8623 12.8906ZM21.917 19.2188H25.9597C25.1783 20.0905 24.635 21.1795 24.4323 22.3828H22.0939V21.3281C22.0939 20.6096 22.0329 19.9051 21.917 19.2188V19.2188ZM30.672 27.6562C28.3457 27.6562 26.4533 25.7639 26.4533 23.4375C26.4533 21.1111 28.3457 19.2188 30.672 19.2188C32.9984 19.2188 34.8908 21.1111 34.8908 23.4375C34.8908 25.7639 32.9984 27.6562 30.672 27.6562Z" fill="#333333"/>
<path d="M31.7266 23.4375C31.7266 24.0201 31.2544 24.4922 30.6719 24.4922C30.0893 24.4922 29.6172 24.0201 29.6172 23.4375C29.6172 22.8549 30.0893 22.3828 30.6719 22.3828C31.2544 22.3828 31.7266 22.8549 31.7266 23.4375Z" fill="#364048"/>
</svg>
