<svg width="59" height="26" viewBox="0 0 59 26" fill="none" xmlns="http://www.w3.org/2000/svg">
<circle cx="16" cy="13" r="13" fill="#FF55BA" fill-opacity="0.2"/>
<g filter="url(#filter0_d)">
<path d="M15.0354 13.3197C15.0641 13.3245 15.0929 13.3269 15.1216 13.3269C15.1552 13.3269 15.1887 13.3269 15.2223 13.3269C15.6393 13.3269 16.0323 13.2382 16.4014 13.0609C16.7752 12.8787 17.1011 12.6487 17.3791 12.3707C17.6571 12.0927 17.8752 11.7836 18.0334 11.4433C18.1963 11.103 18.2778 10.7722 18.2778 10.4511C18.2778 10.2211 18.2347 10.003 18.1484 9.79687C18.0669 9.59078 17.9351 9.41104 17.753 9.25767C17.5756 9.10429 17.3456 8.98207 17.0628 8.89101C16.7848 8.79994 16.4517 8.75441 16.0635 8.75441C15.6273 8.75441 15.2511 8.79515 14.9347 8.87663C14.6232 8.95811 14.3524 9.06355 14.1223 9.19296C13.897 9.32237 13.7053 9.47095 13.5472 9.63871C13.3938 9.80646 13.2596 9.97901 13.1446 10.1563C13.0343 10.3337 12.9337 10.5062 12.8426 10.674C12.7515 10.8417 12.6557 10.9903 12.555 11.1197C12.4592 11.2491 12.3513 11.3546 12.2315 11.4361C12.1117 11.5175 11.9631 11.5583 11.7858 11.5583C11.5461 11.5583 11.3664 11.4984 11.2465 11.3785C11.1267 11.2539 11.0668 11.0814 11.0668 10.8609C11.0668 10.6548 11.1219 10.4319 11.2322 10.1923C11.3472 9.95265 11.5078 9.713 11.7139 9.47335C11.9247 9.2337 12.1812 9.00364 12.4831 8.78317C12.7851 8.5579 13.123 8.36139 13.4968 8.19363C13.8755 8.02109 14.2877 7.88449 14.7334 7.78384C15.1792 7.67839 15.6513 7.62567 16.1497 7.62567C16.6386 7.62567 17.1059 7.68798 17.5517 7.8126C18.0022 7.93721 18.4 8.12414 18.7451 8.37337C19.0902 8.61781 19.3634 8.92696 19.5647 9.30081C19.7708 9.67465 19.8738 10.1108 19.8738 10.6093C19.8738 10.9448 19.8115 11.2659 19.6869 11.5727C19.5671 11.8746 19.4041 12.1598 19.198 12.4282C18.9919 12.6918 18.7499 12.9363 18.4719 13.1615C18.1987 13.382 17.9063 13.5785 17.5948 13.7511C17.2833 13.9236 16.9621 14.0698 16.6314 14.1896C16.3055 14.3094 15.9892 14.3957 15.6824 14.4484C15.7256 14.6737 15.7951 14.9277 15.8909 15.2105C15.9916 15.4885 16.1114 15.7545 16.2504 16.0085C16.3942 16.2578 16.5523 16.4711 16.7249 16.6484C16.8974 16.8257 17.0796 16.9216 17.2713 16.936C17.3096 16.9408 17.3456 16.9432 17.3791 16.9432C17.4127 16.9432 17.4462 16.9432 17.4798 16.9432C17.8297 16.9432 18.1412 16.8856 18.4144 16.7706C18.6876 16.6556 18.9153 16.5286 19.0974 16.3896C19.3131 16.2314 19.5 16.0469 19.6582 15.836C19.8067 15.6682 19.9577 15.5844 20.1111 15.5844C20.207 15.5844 20.2884 15.6179 20.3555 15.685C20.4226 15.7521 20.4562 15.8432 20.4562 15.9582C20.4562 16.0684 20.4202 16.1979 20.3483 16.3464C20.2812 16.4902 20.1638 16.6412 19.9961 16.7994C19.5024 17.2643 19.0183 17.6046 18.5438 17.8203C18.0741 18.0312 17.6284 18.1366 17.2066 18.1366C16.8615 18.1366 16.5428 18.0383 16.2504 17.8418C15.958 17.6453 15.692 17.3793 15.4524 17.0438C15.2127 16.7083 14.9946 16.3177 14.7981 15.8719C14.6016 15.4214 14.4267 14.9469 14.2733 14.4484C14.187 14.6449 14.0983 14.8774 14.0073 15.1458C13.9162 15.4094 13.818 15.6826 13.7125 15.9654C13.6071 16.2482 13.4968 16.5286 13.3818 16.8066C13.2668 17.0798 13.1398 17.3266 13.0008 17.5471C12.8618 17.7627 12.7132 17.9377 12.555 18.0719C12.3969 18.2061 12.2243 18.2732 12.0374 18.2732C11.884 18.2732 11.7594 18.2492 11.6635 18.2013C11.5677 18.1534 11.4934 18.0935 11.4407 18.0216C11.3879 17.9497 11.3496 17.8706 11.3256 17.7843C11.3065 17.698 11.2969 17.6166 11.2969 17.5399C11.2969 17.4296 11.3113 17.317 11.34 17.202C11.3688 17.0869 11.4095 16.9791 11.4622 16.8785L13.5831 12.9962C13.7652 12.6702 13.9474 12.3563 14.1295 12.0544C14.3164 11.7476 14.4962 11.4768 14.6687 11.2419C14.846 11.0071 15.0114 10.8202 15.1648 10.6812C15.3229 10.5374 15.4643 10.4655 15.589 10.4655C15.6225 10.4655 15.6632 10.4727 15.7112 10.4871C15.7591 10.4966 15.8022 10.5182 15.8406 10.5518C15.8789 10.5805 15.9125 10.6261 15.9412 10.6884C15.97 10.7459 15.9844 10.8202 15.9844 10.9112C15.9844 11.0023 15.958 11.1293 15.9053 11.2923C15.8526 11.4552 15.7831 11.6422 15.6968 11.853C15.6105 12.0639 15.5099 12.2964 15.3948 12.5504C15.2798 12.7997 15.16 13.0561 15.0354 13.3197ZM21.9363 17.0007C21.9363 17.1493 21.9076 17.2906 21.8501 17.4248C21.7974 17.559 21.7231 17.6789 21.6272 17.7843C21.5361 17.885 21.4283 17.9641 21.3037 18.0216C21.1791 18.0839 21.0473 18.115 20.9083 18.115C20.7932 18.115 20.6854 18.0911 20.5847 18.0431C20.4841 18 20.3954 17.9401 20.3187 17.8634C20.2468 17.7867 20.1893 17.698 20.1462 17.5974C20.103 17.4919 20.0815 17.3817 20.0815 17.2667C20.0815 17.1229 20.1078 16.9863 20.1606 16.8569C20.2181 16.7227 20.2948 16.6053 20.3906 16.5046C20.4865 16.4039 20.5991 16.3249 20.7285 16.2674C20.8579 16.205 20.9969 16.1739 21.1455 16.1739C21.3804 16.1739 21.5697 16.253 21.7135 16.4111C21.8621 16.5693 21.9363 16.7658 21.9363 17.0007Z" fill="url(#paint0_linear)"/>
</g>
<circle cx="44" cy="13" r="13" fill="#4D4F57" fill-opacity="0.2"/>
<g filter="url(#filter1_d)">
<path d="M47.1927 8.17207C47.2933 8.07141 47.4036 7.98275 47.5234 7.90606C47.6432 7.82458 47.7654 7.75748 47.89 7.70475C48.0147 7.64724 48.1369 7.6041 48.2567 7.57534C48.3765 7.54179 48.4844 7.52502 48.5802 7.52502C48.6905 7.52502 48.7672 7.54419 48.8103 7.58253C48.8582 7.62088 48.8822 7.6736 48.8822 7.7407C48.8822 7.84135 48.8367 7.97076 48.7456 8.12893C48.6593 8.2823 48.5539 8.44287 48.4293 8.61062C48.3094 8.77358 48.1824 8.93175 48.0482 9.08512C47.9188 9.2385 47.811 9.36311 47.7247 9.45897C47.0729 10.1875 46.457 10.8705 45.877 11.508C45.3019 12.1454 44.7531 12.7397 44.2306 13.2909C44.3409 13.684 44.4439 14.0266 44.5398 14.319C44.6356 14.6114 44.7291 14.8774 44.8202 15.117C44.9112 15.3519 45.0023 15.57 45.0934 15.7713C45.1844 15.9726 45.2851 16.1763 45.3953 16.3824C45.5056 16.5837 45.6254 16.7994 45.7548 17.0294C45.8842 17.2547 46.0328 17.5135 46.2005 17.8059C46.2245 17.849 46.2365 17.8922 46.2365 17.9353C46.2365 17.9928 46.2149 18.0431 46.1718 18.0863C46.1334 18.1294 46.0831 18.1654 46.0208 18.1941C45.9633 18.2277 45.8962 18.2516 45.8195 18.266C45.7476 18.2852 45.6781 18.2948 45.611 18.2948C45.4241 18.2948 45.2395 18.2301 45.0574 18.1007C44.8753 17.976 44.6836 17.7675 44.4823 17.4752C44.281 17.178 44.0653 16.7874 43.8352 16.3033C43.6099 15.8192 43.3559 15.2201 43.0731 14.5059C42.5459 15.0571 42.0786 15.5364 41.6712 15.9438C41.2686 16.3464 40.9115 16.6915 40.6 16.9791C40.2932 17.2667 40.0224 17.5015 39.7876 17.6837C39.5575 17.8658 39.3514 18.0072 39.1693 18.1078C38.9919 18.2133 38.8314 18.2852 38.6876 18.3235C38.5438 18.3619 38.4024 18.381 38.2634 18.381C38.1532 18.381 38.0573 18.3499 37.9758 18.2876C37.8896 18.2253 37.8464 18.1126 37.8464 17.9497C37.8464 17.8011 37.8944 17.6693 37.9902 17.5543C38.0813 17.4392 38.1915 17.3386 38.3209 17.2523C38.4503 17.1612 38.5798 17.0845 38.7092 17.0222C38.8434 16.9551 38.9464 16.8952 39.0183 16.8425C39.2388 16.6939 39.4808 16.5046 39.7444 16.2745C40.0128 16.0397 40.3004 15.7713 40.6072 15.4693C40.9139 15.1674 41.2374 14.8367 41.5777 14.4772C41.918 14.1129 42.2727 13.7247 42.6418 13.3125C42.4117 12.6367 42.2224 12.0328 42.0738 11.5008C41.9252 10.964 41.7958 10.4655 41.6856 10.0054C41.6137 9.70821 41.549 9.44459 41.4915 9.21453C41.434 8.97968 41.4052 8.79275 41.4052 8.65376C41.4052 8.52435 41.4507 8.37816 41.5418 8.2152C41.6377 8.05224 41.7551 7.89887 41.8941 7.75508C42.0331 7.6065 42.1817 7.48428 42.3398 7.38842C42.498 7.28777 42.6418 7.23744 42.7712 7.23744C42.9198 7.23744 43.0492 7.31653 43.1594 7.47469C43.2696 7.62807 43.3248 7.89647 43.3248 8.27991C43.3248 8.3518 43.32 8.40932 43.3104 8.45245C43.3056 8.4908 43.296 8.52435 43.2816 8.55311C43.2673 8.58186 43.2505 8.61062 43.2313 8.63938C43.2121 8.66814 43.1906 8.70648 43.1666 8.75441C43.1618 8.76879 43.1594 8.79994 43.1594 8.84787C43.1594 9.03 43.2193 9.3751 43.3391 9.88315C43.459 10.3912 43.6267 11.0502 43.8424 11.8602C43.8424 11.8698 43.8472 11.889 43.8568 11.9178L44.2881 11.4073C44.5613 11.1293 44.8106 10.8537 45.0358 10.5805C45.2659 10.3025 45.4912 10.0293 45.7117 9.76093C45.9321 9.48773 46.1598 9.21933 46.3946 8.95571C46.6343 8.68731 46.9003 8.42609 47.1927 8.17207Z" fill="url(#paint1_linear)"/>
</g>
<defs>
<filter id="filter0_d" x="10.6988" y="7.44144" width="11.6057" height="11.3837" filterUnits="userSpaceOnUse" color-interpolation-filters="sRGB">
<feFlood flood-opacity="0" result="BackgroundImageFix"/>
<feColorMatrix in="SourceAlpha" type="matrix" values="0 0 0 0 0 0 0 0 0 0 0 0 0 0 0 0 0 0 127 0"/>
<feOffset dy="0.184049"/>
<feGaussianBlur stdDeviation="0.184049"/>
<feColorMatrix type="matrix" values="0 0 0 0 0 0 0 0 0 0 0 0 0 0 0 0 0 0 0.2 0"/>
<feBlend mode="normal" in2="BackgroundImageFix" result="effect1_dropShadow"/>
<feBlend mode="normal" in="SourceGraphic" in2="effect1_dropShadow" result="shape"/>
</filter>
<filter id="filter1_d" x="37.4781" y="7.05326" width="11.772" height="11.8798" filterUnits="userSpaceOnUse" color-interpolation-filters="sRGB">
<feFlood flood-opacity="0" result="BackgroundImageFix"/>
<feColorMatrix in="SourceAlpha" type="matrix" values="0 0 0 0 0 0 0 0 0 0 0 0 0 0 0 0 0 0 127 0"/>
<feOffset dy="0.184049"/>
<feGaussianBlur stdDeviation="0.184049"/>
<feColorMatrix type="matrix" values="0 0 0 0 0 0 0 0 0 0 0 0 0 0 0 0 0 0 0.2 0"/>
<feBlend mode="normal" in2="BackgroundImageFix" result="effect1_dropShadow"/>
<feBlend mode="normal" in="SourceGraphic" in2="effect1_dropShadow" result="shape"/>
</filter>
<linearGradient id="paint0_linear" x1="16.4908" y1="6" x2="16.4908" y2="24" gradientUnits="userSpaceOnUse">
<stop stop-color="#9E00F6"/>
<stop offset="1" stop-color="#FA7564"/>
</linearGradient>
<linearGradient id="paint1_linear" x1="42.4908" y1="6" x2="42.4908" y2="24" gradientUnits="userSpaceOnUse">
<stop stop-color="#5C5861"/>
<stop offset="1" stop-color="#364048"/>
</linearGradient>
</defs>
</svg>
