<svg width="742" height="362" viewBox="0 0 742 362" fill="none" xmlns="http://www.w3.org/2000/svg">
  <g filter="url(#filter0_d)">
    <path
      d="M118.031 159.852C118.812 159.982 119.594 160.047 120.375 160.047C121.286 160.047 122.198 160.047 123.109 160.047C134.438 160.047 145.115 157.638 155.141 152.82C165.297 147.872 174.151 141.622 181.703 134.07C189.255 126.518 195.18 118.12 199.477 108.875C203.904 99.6302 206.117 90.6458 206.117 81.9219C206.117 75.6719 204.945 69.7474 202.602 64.1484C200.388 58.5495 196.807 53.6667 191.859 49.5C187.042 45.3333 180.792 42.013 173.109 39.5391C165.557 37.0651 156.508 35.8281 145.961 35.8281C134.112 35.8281 123.891 36.9349 115.297 39.1484C106.833 41.362 99.4766 44.2266 93.2266 47.7422C87.1068 51.2578 81.8984 55.2943 77.6016 59.8516C73.4349 64.4089 69.7891 69.0964 66.6641 73.9141C63.6693 78.7318 60.9349 83.4193 58.4609 87.9766C55.987 92.5339 53.3828 96.5703 50.6484 100.086C48.0443 103.602 45.1146 106.466 41.8594 108.68C38.6042 110.893 34.5677 112 29.75 112C23.2396 112 18.3568 110.372 15.1016 107.117C11.8464 103.732 10.2188 99.0443 10.2188 93.0547C10.2188 87.4557 11.7161 81.401 14.7109 74.8906C17.8359 68.3802 22.1979 61.8698 27.7969 55.3594C33.526 48.849 40.4922 42.599 48.6953 36.6094C56.8984 30.4896 66.0781 25.151 76.2344 20.5938C86.5208 15.9062 97.7188 12.1953 109.828 9.46094C121.938 6.59635 134.763 5.16406 148.305 5.16406C161.586 5.16406 174.281 6.85677 186.391 10.2422C198.63 13.6276 209.438 18.7057 218.812 25.4766C228.188 32.1172 235.609 40.5156 241.078 50.6719C246.677 60.8281 249.477 72.6771 249.477 86.2188C249.477 95.3333 247.784 104.057 244.398 112.391C241.143 120.594 236.716 128.341 231.117 135.633C225.518 142.794 218.943 149.435 211.391 155.555C203.969 161.544 196.026 166.883 187.562 171.57C179.099 176.258 170.375 180.229 161.391 183.484C152.536 186.74 143.943 189.083 135.609 190.516C136.781 196.635 138.669 203.536 141.273 211.219C144.008 218.771 147.263 225.997 151.039 232.898C154.945 239.669 159.242 245.464 163.93 250.281C168.617 255.099 173.565 257.703 178.773 258.094C179.815 258.224 180.792 258.289 181.703 258.289C182.615 258.289 183.526 258.289 184.438 258.289C193.943 258.289 202.406 256.727 209.828 253.602C217.25 250.477 223.435 247.026 228.383 243.25C234.242 238.953 239.32 233.94 243.617 228.211C247.654 223.654 251.755 221.375 255.922 221.375C258.526 221.375 260.74 222.286 262.562 224.109C264.385 225.932 265.297 228.406 265.297 231.531C265.297 234.526 264.32 238.042 262.367 242.078C260.544 245.984 257.354 250.086 252.797 254.383C239.385 267.013 226.234 276.258 213.344 282.117C200.583 287.846 188.474 290.711 177.016 290.711C167.641 290.711 158.982 288.042 151.039 282.703C143.096 277.365 135.87 270.138 129.359 261.023C122.849 251.909 116.924 241.297 111.586 229.188C106.247 216.948 101.495 204.057 97.3281 190.516C94.9844 195.854 92.5755 202.169 90.1016 209.461C87.6276 216.622 84.9583 224.044 82.0938 231.727C79.2292 239.409 76.2344 247.026 73.1094 254.578C69.9844 262 66.5339 268.706 62.7578 274.695C58.9818 280.555 54.9453 285.307 50.6484 288.953C46.3516 292.599 41.6641 294.422 36.5859 294.422C32.4193 294.422 29.0339 293.771 26.4297 292.469C23.8255 291.167 21.8073 289.539 20.375 287.586C18.9427 285.633 17.901 283.484 17.25 281.141C16.7292 278.797 16.4688 276.583 16.4688 274.5C16.4688 271.505 16.8594 268.445 17.6406 265.32C18.4219 262.195 19.5286 259.266 20.9609 256.531L78.5781 151.062C83.526 142.208 88.474 133.68 93.4219 125.477C98.5 117.143 103.383 109.786 108.07 103.406C112.888 97.026 117.38 91.9479 121.547 88.1719C125.844 84.2656 129.685 82.3125 133.07 82.3125C133.982 82.3125 135.089 82.5078 136.391 82.8984C137.693 83.1589 138.865 83.7448 139.906 84.6562C140.948 85.4375 141.859 86.6745 142.641 88.3672C143.422 89.9297 143.812 91.9479 143.812 94.4219C143.812 96.8958 143.096 100.346 141.664 104.773C140.232 109.201 138.344 114.279 136 120.008C133.656 125.737 130.922 132.052 127.797 138.953C124.672 145.724 121.417 152.69 118.031 159.852Z"
      fill="url(#paint0_linear)"/>
    <path
      d="M363.398 171.766C362.747 171.635 362.161 171.57 361.641 171.57C361.12 171.57 360.534 171.57 359.883 171.57C354.935 171.57 350.312 172.547 346.016 174.5C341.719 176.453 337.747 179.057 334.102 182.312C330.586 185.438 327.396 189.018 324.531 193.055C321.797 197.091 319.323 201.128 317.109 205.164C314.896 209.07 313.008 212.846 311.445 216.492C310.013 220.138 308.906 223.198 308.125 225.672C312.682 223.328 317.37 220.659 322.188 217.664C327.135 214.669 331.758 211.805 336.055 209.07C340.352 206.336 344.062 203.862 347.188 201.648C350.443 199.435 352.721 197.938 354.023 197.156C359.883 193.51 363.919 190.125 366.133 187C368.346 183.745 369.453 180.945 369.453 178.602C369.453 176.648 368.802 175.086 367.5 173.914C366.328 172.742 364.961 172.026 363.398 171.766ZM370.43 144.812C381.237 144.812 389.31 147.417 394.648 152.625C399.987 157.833 402.656 165.06 402.656 174.305C402.656 179.773 401.224 185.503 398.359 191.492C395.495 197.482 390.547 203.602 383.516 209.852C376.484 215.971 367.044 222.286 355.195 228.797C343.477 235.177 328.763 241.622 311.055 248.133C311.706 251.909 313.724 254.904 317.109 257.117C320.495 259.201 324.987 260.242 330.586 260.242C336.576 260.242 342.956 259.396 349.727 257.703C356.628 255.88 363.398 253.602 370.039 250.867C376.81 248.133 383.385 245.203 389.766 242.078C396.146 238.823 401.875 235.763 406.953 232.898C412.161 230.034 416.458 227.56 419.844 225.477C423.359 223.393 425.703 222.091 426.875 221.57C428.047 220.789 429.089 220.333 430 220.203C431.042 220.073 431.953 220.008 432.734 220.008C434.297 220.008 435.599 220.398 436.641 221.18C437.682 221.831 438.529 222.677 439.18 223.719C439.961 224.63 440.482 225.672 440.742 226.844C441.003 227.885 441.133 228.797 441.133 229.578C441.133 230.75 441.003 232.182 440.742 233.875C440.482 235.438 439.505 237.26 437.812 239.344C437.161 239.995 434.948 241.753 431.172 244.617C427.526 247.482 422.773 250.867 416.914 254.773C411.055 258.68 404.219 262.846 396.406 267.273C388.724 271.57 380.521 275.542 371.797 279.188C363.203 282.833 354.219 285.828 344.844 288.172C335.469 290.646 326.224 291.883 317.109 291.883C309.297 291.883 302.331 290.385 296.211 287.391C290.221 284.396 285.078 280.359 280.781 275.281C276.615 270.203 273.424 264.344 271.211 257.703C268.997 251.062 267.891 244.096 267.891 236.805C267.891 231.206 268.997 225.086 271.211 218.445C273.424 211.674 276.615 204.904 280.781 198.133C284.948 191.362 290.026 184.786 296.016 178.406C302.135 171.896 308.971 166.167 316.523 161.219C324.076 156.271 332.344 152.299 341.328 149.305C350.443 146.31 360.143 144.812 370.43 144.812ZM500.898 171.766C500.247 171.635 499.661 171.57 499.141 171.57C498.62 171.57 498.034 171.57 497.383 171.57C492.435 171.57 487.812 172.547 483.516 174.5C479.219 176.453 475.247 179.057 471.602 182.312C468.086 185.438 464.896 189.018 462.031 193.055C459.297 197.091 456.823 201.128 454.609 205.164C452.396 209.07 450.508 212.846 448.945 216.492C447.513 220.138 446.406 223.198 445.625 225.672C450.182 223.328 454.87 220.659 459.688 217.664C464.635 214.669 469.258 211.805 473.555 209.07C477.852 206.336 481.562 203.862 484.688 201.648C487.943 199.435 490.221 197.938 491.523 197.156C497.383 193.51 501.419 190.125 503.633 187C505.846 183.745 506.953 180.945 506.953 178.602C506.953 176.648 506.302 175.086 505 173.914C503.828 172.742 502.461 172.026 500.898 171.766ZM507.93 144.812C518.737 144.812 526.81 147.417 532.148 152.625C537.487 157.833 540.156 165.06 540.156 174.305C540.156 179.773 538.724 185.503 535.859 191.492C532.995 197.482 528.047 203.602 521.016 209.852C513.984 215.971 504.544 222.286 492.695 228.797C480.977 235.177 466.263 241.622 448.555 248.133C449.206 251.909 451.224 254.904 454.609 257.117C457.995 259.201 462.487 260.242 468.086 260.242C474.076 260.242 480.456 259.396 487.227 257.703C494.128 255.88 500.898 253.602 507.539 250.867C514.31 248.133 520.885 245.203 527.266 242.078C533.646 238.823 539.375 235.763 544.453 232.898C549.661 230.034 553.958 227.56 557.344 225.477C560.859 223.393 563.203 222.091 564.375 221.57C565.547 220.789 566.589 220.333 567.5 220.203C568.542 220.073 569.453 220.008 570.234 220.008C571.797 220.008 573.099 220.398 574.141 221.18C575.182 221.831 576.029 222.677 576.68 223.719C577.461 224.63 577.982 225.672 578.242 226.844C578.503 227.885 578.633 228.797 578.633 229.578C578.633 230.75 578.503 232.182 578.242 233.875C577.982 235.438 577.005 237.26 575.312 239.344C574.661 239.995 572.448 241.753 568.672 244.617C565.026 247.482 560.273 250.867 554.414 254.773C548.555 258.68 541.719 262.846 533.906 267.273C526.224 271.57 518.021 275.542 509.297 279.188C500.703 282.833 491.719 285.828 482.344 288.172C472.969 290.646 463.724 291.883 454.609 291.883C446.797 291.883 439.831 290.385 433.711 287.391C427.721 284.396 422.578 280.359 418.281 275.281C414.115 270.203 410.924 264.344 408.711 257.703C406.497 251.062 405.391 244.096 405.391 236.805C405.391 231.206 406.497 225.086 408.711 218.445C410.924 211.674 414.115 204.904 418.281 198.133C422.448 191.362 427.526 184.786 433.516 178.406C439.635 171.896 446.471 166.167 454.023 161.219C461.576 156.271 469.844 152.299 478.828 149.305C487.943 146.31 497.643 144.812 507.93 144.812ZM692.5 176.062C685.729 176.323 679.284 176.518 673.164 176.648C667.174 176.779 661.315 176.909 655.586 177.039C649.857 177.039 644.193 177.039 638.594 177.039C632.995 177.039 627.331 177.039 621.602 177.039C618.216 183.68 614.375 191.427 610.078 200.281C605.911 209.005 601.484 218.185 596.797 227.82C592.24 237.456 587.617 247.221 582.93 257.117C578.372 266.883 574.01 276.193 569.844 285.047C565.677 293.771 561.901 301.648 558.516 308.68C555.13 315.841 552.396 321.505 550.312 325.672C548.88 328.667 547.122 331.401 545.039 333.875C542.956 336.479 540.677 338.693 538.203 340.516C535.729 342.339 533.19 343.706 530.586 344.617C527.982 345.659 525.573 346.18 523.359 346.18C520.234 346.18 517.435 345.398 514.961 343.836C512.487 342.273 511.25 339.799 511.25 336.414C511.25 334.721 511.641 332.703 512.422 330.359C513.203 328.146 514.31 325.542 515.742 322.547L584.688 176.453H574.336C567.174 176.453 562.292 175.346 559.688 173.133C557.083 170.919 555.781 168.315 555.781 165.32C555.781 162.195 557.409 159.201 560.664 156.336C563.919 153.341 568.672 151.844 574.922 151.844H597.969C607.214 133.224 616.458 117.859 625.703 105.75C635.078 93.6406 644.258 84.0703 653.242 77.0391C662.227 70.0078 670.951 65.125 679.414 62.3906C688.008 59.6562 696.211 58.2891 704.023 58.2891C707.669 58.2891 711.12 59.0052 714.375 60.4375C717.76 61.8698 720.69 64.0182 723.164 66.8828C725.768 69.7474 727.852 73.3932 729.414 77.8203C730.977 82.1172 731.758 87.1953 731.758 93.0547C731.758 98.6536 730.977 104.839 729.414 111.609C729.023 113.432 728.242 114.995 727.07 116.297C725.898 117.469 724.596 118.445 723.164 119.227C721.732 120.008 720.299 120.594 718.867 120.984C717.435 121.245 716.198 121.375 715.156 121.375C712.552 121.375 710.143 120.789 707.93 119.617C705.716 118.315 704.609 116.362 704.609 113.758C704.609 112.065 704.674 110.503 704.805 109.07C705.065 107.638 705.195 106.206 705.195 104.773C705.195 99.3047 704.154 95.3984 702.07 93.0547C700.117 90.7109 697.448 89.5391 694.062 89.5391C690.026 89.5391 685.273 91.2969 679.805 94.8125C674.466 98.3281 668.997 103.016 663.398 108.875C657.93 114.734 652.656 121.44 647.578 128.992C642.5 136.414 638.333 144.031 635.078 151.844H680.586C684.622 151.844 688.398 151.909 691.914 152.039C695.43 152.169 698.49 152.56 701.094 153.211C703.828 153.862 705.911 154.969 707.344 156.531C708.906 157.964 709.688 160.112 709.688 162.977C709.688 164.409 709.427 165.841 708.906 167.273C708.385 168.706 707.474 170.073 706.172 171.375C705 172.547 703.307 173.589 701.094 174.5C698.88 175.281 696.016 175.802 692.5 176.062Z"
      fill="black"/>
  </g>
  <defs>
    <filter id="filter0_d" x="0.21875" y="0.164062" width="741.539" height="361.016" filterUnits="userSpaceOnUse"
            color-interpolation-filters="sRGB">
      <feFlood flood-opacity="0" result="BackgroundImageFix"/>
      <feColorMatrix in="SourceAlpha" type="matrix" values="0 0 0 0 0 0 0 0 0 0 0 0 0 0 0 0 0 0 127 0"/>
      <feOffset dy="5"/>
      <feGaussianBlur stdDeviation="5"/>
      <feColorMatrix type="matrix" values="0 0 0 0 0 0 0 0 0 0 0 0 0 0 0 0 0 0 0.2 0"/>
      <feBlend mode="normal" in2="BackgroundImageFix" result="effect1_dropShadow"/>
      <feBlend mode="normal" in="SourceGraphic" in2="effect1_dropShadow" result="shape"/>
    </filter>
    <linearGradient id="paint0_linear" x1="308" y1="-52" x2="308" y2="437" gradientUnits="userSpaceOnUse">
      <stop stop-color="#9E00F6"/>
      <stop offset="1" stop-color="#FA7564"/>
    </linearGradient>
  </defs>
</svg>
